<?xml version="1.0" encoding="UTF-8" ?>
<!DOCTYPE svg PUBLIC "-//W3C//DTD SVG 1.1//EN" "http://www.w3.org/Graphics/SVG/1.1/DTD/svg11.dtd">
<svg width="806pt" height="1240pt" viewBox="0 0 806 1240" version="1.1" xmlns="http://www.w3.org/2000/svg">
<path fill="#fefefd" d=" M 0.00 0.00 L 806.00 0.00 L 806.00 1240.00 L 411.64 1240.00 C 451.72 1238.45 491.38 1228.23 527.25 1210.31 C 557.06 1195.67 584.32 1176.17 608.83 1153.83 C 662.18 1104.80 702.48 1043.03 732.69 977.53 C 772.33 890.88 794.34 796.80 802.42 702.05 C 808.01 632.42 806.76 562.19 797.48 492.92 C 786.61 411.89 765.05 331.97 730.37 257.81 C 713.47 221.80 693.47 187.19 669.92 155.11 C 649.02 126.73 625.37 100.23 598.48 77.39 C 572.29 55.03 543.01 36.11 511.26 22.68 C 466.97 3.78 417.70 -3.70 369.86 2.37 C 331.11 7.05 293.64 20.42 259.94 39.98 C 204.67 72.05 159.65 119.43 123.99 171.99 C 79.36 237.89 48.49 312.41 28.51 389.25 C 13.32 448.02 4.43 508.38 1.35 568.99 C 0.51 580.17 0.63 591.39 0.00 602.58 L 0.00 0.00 Z" />
<path fill="#f0c60b" d=" M 369.86 2.37 C 417.70 -3.70 466.97 3.78 511.26 22.68 C 543.01 36.11 572.29 55.03 598.48 77.39 C 625.37 100.23 649.02 126.73 669.92 155.11 C 693.47 187.19 713.47 221.80 730.37 257.81 C 765.05 331.97 786.61 411.89 797.48 492.92 C 806.76 562.19 808.01 632.42 802.42 702.05 C 794.34 796.80 772.33 890.88 732.69 977.53 C 702.48 1043.03 662.18 1104.80 608.83 1153.83 C 584.32 1176.17 557.06 1195.67 527.25 1210.31 C 491.38 1228.23 451.72 1238.45 411.64 1240.00 L 393.57 1240.00 C 353.92 1238.33 314.69 1228.25 279.16 1210.60 C 247.07 1194.87 217.82 1173.65 191.94 1149.07 C 158.69 1117.70 130.74 1081.06 107.13 1042.01 C 71.01 982.05 45.21 916.22 27.86 848.52 C 16.51 804.08 8.78 758.74 4.41 713.10 C 1.76 687.28 0.87 661.34 0.00 635.41 L 0.00 602.58 C 0.63 591.39 0.51 580.17 1.35 568.99 C 4.43 508.38 13.32 448.02 28.51 389.25 C 48.49 312.41 79.36 237.89 123.99 171.99 C 159.65 119.43 204.67 72.05 259.94 39.98 C 293.64 20.42 331.11 7.05 369.86 2.37 Z" />
<path fill="#114fa2" d=" M 311.11 46.99 C 339.96 35.53 370.93 28.91 402.03 29.19 C 447.87 28.50 493.20 42.44 532.56 65.52 C 566.65 85.41 596.55 111.89 622.47 141.53 C 656.96 181.11 684.37 226.46 706.33 274.04 C 707.09 275.61 706.63 277.21 705.65 278.57 C 696.05 293.67 685.24 308.00 673.42 321.44 C 670.88 324.47 667.79 327.06 665.59 330.37 C 665.11 342.54 665.55 354.77 665.40 366.96 C 665.40 460.53 665.40 554.10 665.40 647.67 C 702.45 647.68 739.51 647.66 776.56 647.68 C 776.73 656.05 775.77 664.37 775.49 672.72 C 730.47 672.67 685.46 672.72 640.44 672.69 C 640.39 566.48 640.53 460.26 640.37 354.05 C 613.58 377.32 583.25 396.52 550.78 410.85 C 549.57 411.54 547.51 412.09 547.86 413.93 C 547.77 500.18 547.86 586.44 547.81 672.70 C 503.95 672.69 460.08 672.72 416.22 672.68 C 416.14 704.19 416.21 735.70 416.19 767.21 C 460.06 767.17 503.94 767.20 547.82 767.20 C 547.79 899.79 547.90 1032.38 547.76 1164.97 L 547.75 1165.42 C 539.65 1170.36 531.74 1175.65 523.22 1179.85 C 523.10 1050.66 523.23 921.46 523.15 792.26 C 487.51 792.13 451.87 792.24 416.22 792.20 C 416.23 931.71 416.22 1071.21 416.23 1210.72 C 381.98 1213.25 347.41 1206.88 315.29 1195.02 L 315.29 1194.64 C 315.17 940.74 315.31 686.83 315.22 432.93 C 278.32 424.47 242.85 410.09 210.27 390.83 C 210.15 636.09 210.28 881.35 210.21 1126.60 C 201.99 1119.59 194.89 1111.41 187.55 1103.53 C 156.46 1068.86 130.96 1029.46 109.96 987.99 C 109.52 987.16 109.29 986.30 109.24 985.40 C 109.40 760.28 109.25 535.16 109.31 310.04 C 108.99 306.33 110.28 302.12 108.19 298.78 C 104.25 293.19 100.16 287.69 96.47 281.93 C 96.26 280.80 97.14 279.63 97.48 278.55 C 126.04 215.40 164.28 155.66 215.53 108.49 C 243.58 82.78 275.67 61.12 311.11 46.99 Z" />
<path fill="#fefefd" d=" M 380.19 58.89 C 390.78 57.89 401.36 56.57 412.01 56.42 C 419.32 56.21 426.74 56.01 433.91 57.72 C 453.11 61.79 471.57 68.68 489.78 75.87 C 489.85 89.26 489.85 102.64 489.78 116.03 C 484.22 110.33 477.12 106.47 469.87 103.37 C 458.87 98.61 447.21 95.70 435.83 92.02 C 433.67 91.35 431.28 90.90 429.10 91.70 C 426.14 93.35 426.31 97.10 426.32 100.02 C 426.46 119.77 426.15 139.53 426.48 159.27 C 433.00 159.20 439.53 159.24 446.05 159.26 C 452.74 159.42 458.93 156.40 464.79 153.53 C 464.83 169.32 464.82 185.10 464.80 200.89 C 461.30 196.23 455.99 192.87 450.02 192.91 C 442.25 192.89 434.44 192.52 426.69 193.19 C 426.79 217.80 426.69 242.41 426.74 267.02 C 426.94 275.47 430.05 283.54 434.45 290.67 C 415.96 290.64 397.47 290.73 378.98 290.62 C 383.19 283.37 388.51 275.78 387.80 266.99 C 387.75 204.66 387.79 142.33 387.77 80.00 C 387.73 72.30 383.81 65.43 380.19 58.89 Z" />
<path fill="#fefefd" d=" M 296.98 82.02 C 309.59 79.71 323.16 82.01 333.96 89.07 C 342.63 94.73 348.99 103.81 351.01 114.00 C 355.13 135.26 347.56 157.16 334.98 174.24 C 349.45 177.90 362.17 188.29 367.93 202.16 C 373.63 215.88 374.36 231.65 370.37 245.93 C 365.04 264.25 350.04 278.29 333.03 286.05 C 326.36 288.96 319.34 291.81 311.95 291.79 C 281.23 291.71 250.52 291.55 219.81 291.40 C 225.67 285.33 229.37 277.26 229.70 268.78 C 230.46 259.85 229.46 250.90 230.05 241.95 C 229.68 228.98 229.80 215.99 230.02 203.02 C 229.51 185.68 230.22 168.32 229.72 150.98 C 229.51 145.32 226.13 139.23 220.01 138.52 C 236.82 123.07 253.71 107.59 272.30 94.27 C 279.84 89.01 287.77 83.72 296.98 82.02 Z" />
<path fill="#fefefd" d=" M 524.88 125.88 C 534.58 121.55 545.54 119.66 556.06 121.61 C 567.38 123.54 578.19 129.61 585.12 138.85 C 586.28 140.00 585.16 141.42 584.64 142.56 C 580.01 150.78 575.81 159.24 571.07 167.39 C 570.92 167.49 570.62 167.69 570.47 167.79 C 566.71 163.95 562.45 160.40 557.25 158.77 C 546.37 154.96 533.81 160.18 527.32 169.35 C 520.50 178.65 518.24 190.38 517.52 201.66 C 516.92 213.60 517.49 226.19 523.17 236.98 C 527.09 244.55 534.46 250.24 542.89 251.77 C 554.31 254.30 565.75 248.97 574.79 242.35 C 578.33 252.61 582.36 262.70 585.95 272.96 C 575.85 283.89 560.57 288.50 546.02 288.51 C 528.80 288.81 511.37 282.06 499.53 269.42 C 488.30 257.39 482.55 241.24 480.56 225.12 C 478.11 204.56 479.71 183.05 488.09 163.92 C 495.29 147.42 508.28 133.18 524.88 125.88 Z" />
<path fill="#114fa2" d=" M 290.17 123.27 C 294.41 121.26 299.38 120.41 303.94 121.74 C 309.32 123.97 312.44 129.60 313.56 135.07 C 314.97 140.91 313.27 147.10 310.16 152.12 C 305.27 160.08 297.82 166.02 290.18 171.19 C 282.42 176.22 274.21 180.61 265.55 183.83 C 265.50 170.01 265.54 156.20 265.52 142.38 C 272.71 134.84 280.64 127.71 290.17 123.27 Z" />
<path fill="#114fa2" d=" M 266.54 223.92 C 276.25 215.07 288.30 208.62 301.19 205.91 C 309.64 204.31 319.52 204.68 326.17 210.85 C 331.84 215.93 334.43 223.58 335.11 230.98 C 335.58 238.14 331.16 244.78 325.16 248.37 C 314.33 254.93 301.37 256.22 289.01 257.23 C 281.53 257.48 274.00 257.65 266.54 256.90 C 266.50 245.90 266.51 234.91 266.54 223.92 Z" />
<path fill="#fefefd" d=" M 706.33 274.04 C 711.37 286.56 717.15 298.78 721.85 311.44 C 753.52 392.98 770.54 479.84 775.45 567.05 C 777.10 593.89 776.96 620.80 776.56 647.68 C 739.51 647.66 702.45 647.68 665.40 647.67 C 665.40 554.10 665.40 460.53 665.40 366.96 C 665.55 354.77 665.11 342.54 665.59 330.37 C 667.79 327.06 670.88 324.47 673.42 321.44 C 685.24 308.00 696.05 293.67 705.65 278.57 C 706.63 277.21 707.09 275.61 706.33 274.04 Z" />
<path fill="#ec4336" d=" M 87.23 303.31 C 90.23 296.15 93.00 288.88 96.47 281.93 C 100.16 287.69 104.25 293.19 108.19 298.78 C 110.28 302.12 108.99 306.33 109.31 310.04 C 109.25 535.16 109.40 760.28 109.24 985.40 C 102.44 972.92 96.90 959.77 91.25 946.73 C 55.63 861.90 36.54 770.63 30.75 678.97 C 30.33 665.65 29.19 652.36 29.26 639.03 C 29.21 617.34 28.82 595.62 30.08 573.95 C 34.58 481.51 52.67 389.33 87.23 303.31 Z" />
<path fill="#fefefd" d=" M 421.40 310.69 C 429.04 309.26 437.04 312.04 442.53 317.45 C 451.66 326.03 455.57 338.79 456.10 351.02 C 456.34 363.63 452.94 376.83 444.38 386.39 C 438.85 392.60 430.29 396.60 421.91 395.02 C 414.28 393.84 408.04 388.49 403.72 382.35 C 397.45 373.24 394.94 361.94 395.24 351.00 C 395.55 340.64 398.52 330.16 404.79 321.81 C 408.84 316.39 414.67 312.02 421.40 310.69 Z" />
<path fill="#fefefd" d=" M 481.68 313.46 C 488.45 310.94 496.24 309.66 503.13 312.54 C 512.95 315.90 520.30 324.84 522.11 335.02 C 523.30 342.94 523.27 351.30 520.47 358.89 C 517.04 368.94 509.30 377.43 499.53 381.63 C 490.80 385.49 480.54 385.78 471.62 382.39 C 471.65 378.66 471.64 374.93 471.63 371.20 C 477.96 372.05 484.85 372.89 490.74 369.82 C 494.06 368.18 496.25 365.04 497.63 361.70 C 488.43 361.59 478.19 359.48 472.04 352.03 C 466.91 345.94 466.56 337.39 467.81 329.89 C 469.25 322.48 474.61 316.12 481.68 313.46 Z" />
<path fill="#fefefd" d=" M 336.84 315.62 C 347.07 309.22 361.56 310.06 370.33 318.62 C 379.08 327.25 381.80 340.15 381.75 352.04 C 382.05 360.86 380.38 369.97 375.63 377.52 C 370.35 385.85 360.98 391.92 350.94 391.84 C 342.59 392.16 334.23 389.27 327.56 384.32 C 326.92 379.98 327.46 375.49 327.35 371.09 C 335.28 374.50 344.14 379.15 352.93 376.37 C 358.41 374.71 360.79 368.68 360.55 363.38 C 353.17 365.05 345.29 367.49 337.80 365.22 C 328.00 361.81 323.27 350.80 323.36 341.04 C 322.62 330.92 328.11 320.73 336.84 315.62 Z" />
<path fill="#fefefd" d=" M 277.61 322.43 C 284.23 322.03 291.01 318.97 293.71 312.54 C 299.30 312.96 304.88 313.46 310.48 313.63 C 310.51 337.09 310.51 360.55 310.48 384.00 C 303.77 381.62 297.23 378.78 290.60 376.20 C 290.58 361.21 290.57 346.21 290.60 331.22 C 286.49 332.94 282.00 332.96 277.62 332.83 C 277.63 329.36 277.63 325.89 277.61 322.43 Z" />
<path fill="#114fa2" d=" M 348.43 326.61 C 352.73 325.30 357.79 326.93 359.92 331.03 C 362.72 336.31 363.10 344.01 358.13 348.17 C 354.92 351.54 349.18 352.68 345.40 349.59 C 338.28 343.82 339.23 329.83 348.43 326.61 Z" />
<path fill="#114fa2" d=" M 492.42 326.57 C 499.66 324.25 506.28 332.23 504.64 339.11 C 504.04 345.88 495.47 350.67 489.82 346.24 C 482.82 341.48 484.27 329.25 492.42 326.57 Z" />
<path fill="#114fa2" d=" M 424.10 327.94 C 427.51 327.25 430.78 329.48 432.92 331.95 C 437.49 337.53 438.83 344.95 439.18 351.96 C 438.98 359.02 437.63 366.45 433.23 372.17 C 430.98 375.12 427.23 377.43 423.41 376.44 C 418.94 375.14 416.17 370.95 414.42 366.91 C 410.47 357.34 410.67 346.17 414.81 336.70 C 416.66 332.80 419.67 328.91 424.10 327.94 Z" />
<path fill="#ec4336" d=" M 550.78 410.85 C 583.25 396.52 613.58 377.32 640.37 354.05 C 640.53 460.26 640.39 566.48 640.44 672.69 C 685.46 672.72 730.47 672.67 775.49 672.72 C 773.80 704.36 770.11 735.86 765.44 767.19 C 723.77 767.20 682.10 767.17 640.44 767.20 C 640.44 837.46 640.44 907.72 640.44 977.98 C 640.52 1010.81 640.27 1043.65 640.57 1076.48 C 614.14 1110.24 583.61 1141.20 547.76 1164.97 C 547.90 1032.38 547.79 899.79 547.82 767.20 C 503.94 767.20 460.06 767.17 416.19 767.21 C 416.21 735.70 416.14 704.19 416.22 672.68 C 460.08 672.72 503.95 672.69 547.81 672.70 C 547.86 586.44 547.77 500.18 547.86 413.93 C 547.51 412.09 549.57 411.54 550.78 410.85 Z" />
<path fill="#ec4336" d=" M 210.27 390.83 C 242.85 410.09 278.32 424.47 315.22 432.93 C 315.31 686.83 315.17 940.74 315.29 1194.64 C 275.90 1179.79 240.71 1155.37 210.21 1126.60 C 210.28 881.35 210.15 636.09 210.27 390.83 Z" />
<path fill="#fefefd" d=" M 486.08 432.69 C 498.63 429.84 510.89 425.90 523.17 422.11 C 523.20 496.07 523.13 570.04 523.20 644.00 C 522.88 645.08 523.94 647.80 522.00 647.62 C 486.74 647.74 451.48 647.63 416.22 647.68 C 416.22 579.21 416.23 510.74 416.22 442.27 C 439.73 441.25 463.16 438.09 486.08 432.69 Z" />
<path fill="#fefefd" d=" M 0.00 635.41 C 0.87 661.34 1.76 687.28 4.41 713.10 C 8.78 758.74 16.51 804.08 27.86 848.52 C 45.21 916.22 71.01 982.05 107.13 1042.01 C 130.74 1081.06 158.69 1117.70 191.94 1149.07 C 217.82 1173.65 247.07 1194.87 279.16 1210.60 C 314.69 1228.25 353.92 1238.33 393.57 1240.00 L 0.00 1240.00 L 0.00 635.41 Z" />
<path fill="#114fa2" d=" M 640.44 767.20 C 682.10 767.17 723.77 767.20 765.44 767.19 C 764.10 775.57 762.85 783.98 760.92 792.26 C 729.08 792.14 697.24 792.23 665.40 792.21 C 665.41 872.45 665.38 952.69 665.41 1032.92 C 665.27 1036.26 666.02 1039.86 664.43 1042.96 C 656.82 1054.37 649.12 1065.75 640.57 1076.48 C 640.27 1043.65 640.52 1010.81 640.44 977.98 C 640.44 907.72 640.44 837.46 640.44 767.20 Z" />
<path fill="#fefefd" d=" M 416.22 792.20 C 451.87 792.24 487.51 792.13 523.15 792.26 C 523.23 921.46 523.10 1050.66 523.22 1179.85 C 490.23 1197.43 453.66 1208.77 416.23 1210.72 C 416.22 1071.21 416.23 931.71 416.22 792.20 Z" />
<path fill="#fefefd" d=" M 665.40 792.21 C 697.24 792.23 729.08 792.14 760.92 792.26 C 744.43 876.56 715.85 959.22 670.66 1032.59 C 668.53 1036.01 666.30 1039.38 664.43 1042.96 C 666.02 1039.86 665.27 1036.26 665.41 1032.92 C 665.38 952.69 665.41 872.45 665.40 792.21 Z" />
</svg>
