<?xml version="1.0" encoding="utf-8"?>
<!-- Generator: Adobe Illustrator 13.0.0, SVG Export Plug-In . SVG Version: 6.00 Build 14948)  -->
<!DOCTYPE svg PUBLIC "-//W3C//DTD SVG 1.0//EN" "http://www.w3.org/TR/2001/REC-SVG-20010904/DTD/svg10.dtd">
<svg version="1.0" id="Ebene_1" xmlns="http://www.w3.org/2000/svg" xmlns:xlink="http://www.w3.org/1999/xlink" x="0px" y="0px"
	 width="256.025px" height="256.025px" viewBox="0 0 256.025 256.025" enable-background="new 0 0 256.025 256.025"
	 xml:space="preserve">
<path fill-rule="evenodd" clip-rule="evenodd" fill="#FFFFFF" d="M128.013,2c69.405,0,126.013,56.607,126.013,126.013
	s-56.607,126.013-126.013,126.013S2,197.418,2,128.013S58.607,2,128.013,2L128.013,2z"/>
<path fill-rule="evenodd" clip-rule="evenodd" fill="#E20220" d="M53.958,35.663h11.629c2.531,0,4.428,0.602,5.688,1.809
	c1.26,1.202,1.893,2.92,1.893,5.14c0,2.288-0.685,4.075-2.061,5.361c-1.376,1.287-3.475,1.929-6.295,1.929h-3.827v8.403h-7.027
	V35.663L53.958,35.663z M60.985,45.315h1.713c1.35,0,2.294-0.231,2.842-0.701c0.543-0.47,0.817-1.07,0.817-1.798
	c0-0.712-0.237-1.318-0.711-1.809c-0.469-0.495-1.36-0.743-2.667-0.743h-1.993V45.315L60.985,45.315z M76.815,35.663h18.746v4.834
	H83.827v3.601h10.886v4.617H83.827v4.46h12.078v5.129H76.815V35.663L76.815,35.663z M99.763,58.304V35.663h11.66
	c2.162,0,3.816,0.185,4.956,0.559c1.144,0.369,2.066,1.054,2.768,2.061c0.7,1.002,1.048,2.225,1.048,3.664
	c0,1.259-0.269,2.341-0.801,3.252c-0.537,0.912-1.276,1.65-2.208,2.219c-0.602,0.359-1.418,0.659-2.457,0.891
	c0.833,0.279,1.439,0.559,1.824,0.838c0.253,0.185,0.627,0.58,1.117,1.186c0.491,0.612,0.818,1.076,0.981,1.408l3.385,6.563h-7.908
	l-3.737-6.921c-0.474-0.892-0.896-1.477-1.271-1.746c-0.5-0.347-1.075-0.521-1.713-0.521h-0.617v9.188H99.763L99.763,58.304z
	 M106.79,44.835h2.952c0.316,0,0.934-0.1,1.85-0.306c0.464-0.095,0.843-0.332,1.139-0.711c0.29-0.379,0.438-0.817,0.438-1.313
	c0-0.732-0.232-1.291-0.696-1.682c-0.464-0.395-1.334-0.59-2.61-0.59h-3.073V44.835L106.79,44.835z M123.052,50.813l6.658-0.417
	c0.143,1.081,0.438,1.903,0.88,2.472c0.718,0.917,1.75,1.371,3.09,1.371c0.996,0,1.766-0.232,2.309-0.702
	c0.538-0.469,0.806-1.012,0.806-1.628c0-0.585-0.252-1.112-0.77-1.577c-0.516-0.464-1.707-0.901-3.584-1.312
	c-3.067-0.691-5.256-1.603-6.563-2.747c-1.318-1.144-1.977-2.599-1.977-4.37c0-1.165,0.337-2.267,1.012-3.3
	c0.675-1.033,1.688-1.845,3.042-2.441c1.355-0.59,3.211-0.885,5.567-0.885c2.894,0,5.103,0.538,6.621,1.613s2.419,2.789,2.71,5.135
	l-6.596,0.384c-0.174-1.017-0.543-1.76-1.107-2.224c-0.558-0.459-1.333-0.691-2.319-0.691c-0.816,0-1.429,0.168-1.839,0.516
	c-0.412,0.343-0.617,0.765-0.617,1.261c0,0.358,0.169,0.68,0.506,0.97c0.332,0.301,1.112,0.574,2.352,0.832
	c3.057,0.659,5.245,1.329,6.568,2.004c1.323,0.674,2.287,1.507,2.889,2.509c0.601,0.996,0.906,2.114,0.906,3.353
	c0,1.45-0.405,2.789-1.207,4.012c-0.802,1.228-1.924,2.156-3.369,2.788c-1.438,0.632-3.258,0.949-5.45,0.949
	c-3.848,0-6.516-0.738-7.997-2.224C124.085,54.983,123.247,53.102,123.052,50.813L123.052,50.813z M147.391,35.663h7.011v22.642
	h-7.011V35.663L147.391,35.663z M168.846,35.663h7.012v12.309c0,2.583-0.232,4.549-0.691,5.898
	c-0.458,1.351-1.376,2.494-2.762,3.433c-1.387,0.933-3.158,1.402-5.319,1.402c-2.288,0-4.06-0.307-5.313-0.928
	c-1.261-0.617-2.23-1.519-2.91-2.709c-0.685-1.186-1.092-2.657-1.213-4.407l6.685-0.912c0.011,0.997,0.1,1.74,0.264,2.225
	c0.163,0.485,0.442,0.875,0.833,1.17c0.269,0.2,0.648,0.295,1.144,0.295c0.78,0,1.354-0.29,1.724-0.87
	c0.364-0.585,0.549-1.565,0.549-2.941V35.663L168.846,35.663z M193.632,54.566h-7.97l-1.097,3.738h-7.148l8.508-22.642h7.629
	l8.514,22.642h-7.323L193.632,54.566L193.632,54.566z M192.167,49.669l-2.504-8.139l-2.488,8.139H192.167L192.167,49.669z"/>
<polygon fill-rule="evenodd" clip-rule="evenodd" fill="#FDE500" points="128.014,236.08 200.655,213.128 201.144,77.54 
	206.993,74.255 207.969,67.687 128.014,67.687 48.058,67.687 49.033,74.255 54.884,77.54 55.371,213.128 128.014,236.08 "/>
<path fill-rule="evenodd" clip-rule="evenodd" fill="#E20220" d="M18.892,66.324H237.13c3.664,6.323,6.795,12.991,9.33,19.941H9.564
	C12.098,79.314,15.228,72.646,18.892,66.324L18.892,66.324z"/>
<path fill-rule="evenodd" clip-rule="evenodd" fill="#E20220" d="M4.878,102.466c82.089,0,164.177,0,246.267,0
	c1.411,6.479,2.324,13.14,2.693,19.941c-83.885,0-167.769,0-251.652,0C2.555,115.606,3.468,108.945,4.878,102.466L4.878,102.466z"/>
<path fill-rule="evenodd" clip-rule="evenodd" fill="#E20220" d="M2.451,138.609c83.707,0,167.414,0,251.122,0
	c-0.572,6.813-1.689,13.475-3.31,19.941c-81.502,0-163.002,0-244.503,0C4.141,152.084,3.023,145.423,2.451,138.609L2.451,138.609z"
	/>
<path fill-rule="evenodd" clip-rule="evenodd" fill="#E20220" d="M11.016,174.752c77.997,0,155.995,0,233.993,0
	c-2.802,6.976-6.213,13.643-10.162,19.941c-71.224,0-142.448,0-213.67,0C17.227,188.395,13.817,181.728,11.016,174.752
	L11.016,174.752z"/>
<path fill-rule="evenodd" clip-rule="evenodd" fill="#E20220" d="M33.23,210.896h189.563c-6.549,7.477-13.96,14.177-22.082,19.941
	h-145.4C47.19,225.072,39.779,218.372,33.23,210.896L33.23,210.896z"/>
<polygon fill="#FDE500" points="202.063,217.588 129.421,240.54 126.606,240.54 53.963,217.588 50.704,216.557 50.691,213.128 
	50.214,80.277 46.749,78.332 44.747,77.208 44.409,74.932 43.434,68.364 42.638,63.008 48.058,63.008 128.014,63.008 
	207.969,63.008 213.388,63.008 212.593,68.364 211.618,74.932 211.28,77.208 209.278,78.332 205.813,80.277 205.335,213.128 
	205.322,216.557 202.063,217.588 "/>
<path fill-rule="evenodd" clip-rule="evenodd" fill="#FFFFFF" d="M201.001,117.101l0.143-39.561l5.851-3.284l0.975-6.568h-79.955
	H48.058l0.976,6.568l5.85,3.284l0.142,39.514l13.922-0.121l-0.104-4.373l-0.028-1.196l1.198-0.001l17.561-0.015
	c7.169-8.185,16.008-10.609,23.822-12.75c8.053-2.207,14.951-4.097,17.175-12.104c0.592-1.5,0.788-2.3,1.206-3.721
	c0.418,1.421,0.725,2.331,1.209,3.72c2.224,8.007,9.119,9.897,17.173,12.104c7.813,2.142,16.652,4.565,23.821,12.75l17.561,0.015
	l1.198,0.001l-0.028,1.196l-0.104,4.369L201.001,117.101L201.001,117.101z"/>
<path fill-rule="evenodd" clip-rule="evenodd" fill="#004292" d="M128.014,236.08l72.642-22.952l0.337-93.687l-11.601-0.192
	l-1.18-0.019l0.028-1.178l0.103-4.352l-16.894-0.014h-0.539l-0.353-0.416c-6.757-7.961-15.393-10.328-23.012-12.417
	c-7.779-2.132-14.564-3.993-17.767-10.854c-3.203,6.861-9.991,8.722-17.771,10.854c-7.619,2.088-16.254,4.456-23.012,12.417
	l-0.352,0.416h-0.539l-16.894,0.014l0.103,4.352l0.028,1.174l-1.179,0.022l-15.13,0.137l0.337,93.742L128.014,236.08L128.014,236.08
	z"/>
<path fill-rule="evenodd" clip-rule="evenodd" fill="#E20220" d="M74.225,80.547c-0.229,0.029-0.426,0.059-0.584,0.089
	c-0.162,0.026-0.341,0.067-0.544,0.121c-0.235,0.062-0.385,0.174-0.453,0.334c-0.064,0.162-0.097,0.344-0.097,0.55v6.736
	c0,0.62-0.127,1.191-0.377,1.706c-0.25,0.518-0.591,0.953-1.029,1.303c-0.441,0.344-0.935,0.603-1.481,0.779
	c-0.544,0.176-1.127,0.262-1.747,0.262c-1.076,0-1.941-0.259-2.599-0.774c-0.656-0.517-0.985-1.226-0.985-2.128
	c0-0.536,0.15-0.977,0.453-1.326c0.3-0.351,0.715-0.527,1.244-0.527c0.5,0,0.897,0.147,1.194,0.441
	c0.294,0.292,0.443,0.653,0.443,1.085c0,0.368-0.129,0.706-0.384,1.02c-0.256,0.312-0.547,0.601-0.874,0.865v0.112
	c0.05,0.115,0.165,0.214,0.335,0.294c0.174,0.08,0.347,0.121,0.527,0.121c0.688,0,1.229-0.248,1.623-0.742s0.591-1.241,0.591-2.24
	v-6.898c0-0.208-0.032-0.378-0.094-0.517c-0.065-0.138-0.218-0.259-0.459-0.361c-0.17-0.077-0.379-0.139-0.623-0.191
	c-0.244-0.05-0.447-0.088-0.609-0.112v-0.67h6.53V80.547L74.225,80.547z M88.542,92.1h-6.66v-0.673
	c0.312-0.021,0.677-0.077,1.094-0.168c0.42-0.088,0.629-0.2,0.629-0.33c0-0.047-0.002-0.1-0.012-0.156
	c-0.008-0.059-0.032-0.135-0.073-0.232l-1.044-2.535h-4.22c-0.097,0.235-0.206,0.512-0.323,0.83
	c-0.118,0.314-0.221,0.597-0.305,0.844c-0.11,0.32-0.174,0.553-0.195,0.697c-0.02,0.144-0.029,0.244-0.029,0.304
	c0,0.182,0.138,0.337,0.417,0.467c0.279,0.129,0.741,0.223,1.391,0.28V92.1h-5.013v-0.673c0.188-0.01,0.403-0.042,0.641-0.088
	c0.239-0.051,0.427-0.118,0.565-0.203c0.235-0.139,0.435-0.309,0.6-0.509c0.162-0.2,0.299-0.438,0.408-0.715
	c0.665-1.614,1.333-3.231,2.003-4.851c0.67-1.618,1.408-3.405,2.217-5.357h1.723c1.126,2.77,2.008,4.958,2.646,6.566
	c0.638,1.605,1.179,2.94,1.626,3.995c0.076,0.174,0.17,0.33,0.285,0.471c0.115,0.138,0.279,0.273,0.491,0.4
	c0.162,0.091,0.348,0.162,0.562,0.206c0.212,0.047,0.403,0.076,0.576,0.086V92.1L88.542,92.1z M82.124,87.155l-1.773-4.429
	l-1.75,4.429H82.124L82.124,87.155z M101.559,80.547c-0.206,0.024-0.397,0.062-0.57,0.112c-0.17,0.052-0.336,0.124-0.492,0.218
	c-0.247,0.135-0.464,0.314-0.659,0.529c-0.191,0.214-0.379,0.456-0.564,0.717c-0.371,0.546-0.765,1.141-1.173,1.779
	c-0.412,0.641-0.859,1.347-1.341,2.117c-0.314,0.488-0.509,0.861-0.583,1.123c-0.07,0.262-0.105,0.714-0.105,1.355v1.732
	c0,0.209,0.038,0.388,0.115,0.544c0.079,0.156,0.226,0.282,0.444,0.379c0.097,0.039,0.306,0.092,0.621,0.159
	c0.314,0.064,0.55,0.105,0.696,0.115V92.1h-6.812v-0.673c0.161-0.01,0.391-0.033,0.693-0.068c0.3-0.035,0.512-0.074,0.632-0.121
	c0.211-0.091,0.358-0.215,0.435-0.365c0.077-0.153,0.118-0.338,0.118-0.556v-2.156c0-0.188-0.003-0.355-0.01-0.5
	c-0.005-0.144-0.026-0.264-0.062-0.362c-0.041-0.108-0.108-0.247-0.206-0.417c-0.097-0.17-0.223-0.389-0.379-0.658
	c-0.441-0.776-0.87-1.512-1.285-2.206c-0.412-0.694-0.806-1.347-1.179-1.955c-0.194-0.318-0.391-0.571-0.591-0.762
	c-0.197-0.194-0.4-0.35-0.605-0.471c-0.156-0.084-0.344-0.152-0.564-0.196c-0.221-0.047-0.42-0.077-0.6-0.089v-0.67h7.004v0.67
	c-0.644,0.019-1.076,0.062-1.299,0.135c-0.223,0.071-0.338,0.171-0.338,0.297c0,0.062,0.044,0.188,0.126,0.379
	c0.083,0.188,0.233,0.482,0.444,0.876c0.195,0.373,0.48,0.888,0.856,1.544c0.376,0.655,0.829,1.419,1.358,2.299
	c1.091-1.729,1.841-2.935,2.247-3.622c0.408-0.685,0.611-1.105,0.611-1.262c0-0.194-0.117-0.344-0.355-0.447
	c-0.239-0.104-0.626-0.171-1.159-0.201v-0.67h4.531V80.547L101.559,80.547z M114.834,92.1h-6.66v-0.673
	c0.312-0.021,0.677-0.077,1.094-0.168c0.42-0.088,0.629-0.2,0.629-0.33c0-0.047-0.002-0.1-0.012-0.156
	c-0.008-0.059-0.032-0.135-0.073-0.232l-1.044-2.535h-4.22c-0.097,0.235-0.206,0.512-0.323,0.83
	c-0.118,0.314-0.221,0.597-0.305,0.844c-0.11,0.32-0.174,0.553-0.194,0.697c-0.021,0.144-0.029,0.244-0.029,0.304
	c0,0.182,0.138,0.337,0.417,0.467c0.279,0.129,0.741,0.223,1.391,0.28V92.1h-5.013v-0.673c0.188-0.01,0.402-0.042,0.64-0.088
	c0.239-0.051,0.427-0.118,0.565-0.203c0.234-0.139,0.435-0.309,0.599-0.509c0.162-0.2,0.3-0.438,0.409-0.715
	c0.665-1.614,1.332-3.231,2.002-4.851c0.671-1.618,1.409-3.405,2.217-5.357h1.723c1.126,2.77,2.008,4.958,2.646,6.566
	c0.638,1.605,1.179,2.94,1.626,3.995c0.076,0.174,0.17,0.33,0.285,0.471c0.115,0.138,0.28,0.273,0.491,0.4
	c0.162,0.091,0.347,0.162,0.562,0.206c0.212,0.047,0.403,0.076,0.576,0.086V92.1L114.834,92.1z M108.417,87.155l-1.773-4.429
	l-1.75,4.429H108.417L108.417,87.155z M155.429,92.1h-4.687c-0.812-1.241-1.485-2.229-2.021-2.964
	c-0.538-0.735-1.206-1.585-2.002-2.549h-0.474v3.714c0,0.206,0.038,0.382,0.114,0.523c0.077,0.144,0.227,0.265,0.445,0.361
	c0.108,0.047,0.279,0.094,0.511,0.144c0.232,0.047,0.433,0.083,0.6,0.098V92.1h-6.521v-0.673c0.167-0.015,0.385-0.042,0.659-0.071
	c0.272-0.032,0.467-0.07,0.582-0.117c0.218-0.091,0.364-0.209,0.438-0.35c0.076-0.138,0.115-0.32,0.115-0.538v-8.622
	c0-0.208-0.033-0.378-0.097-0.517c-0.062-0.138-0.216-0.259-0.456-0.361c-0.183-0.077-0.4-0.139-0.65-0.191
	c-0.25-0.05-0.446-0.088-0.591-0.112v-0.67h6.856c1.535,0,2.7,0.238,3.494,0.717c0.797,0.479,1.193,1.206,1.193,2.176
	c0,0.855-0.247,1.544-0.738,2.063c-0.49,0.521-1.237,0.927-2.244,1.218c0.392,0.506,0.848,1.091,1.368,1.758
	c0.518,0.667,1.059,1.347,1.623,2.041c0.177,0.227,0.42,0.5,0.727,0.824c0.309,0.323,0.579,0.523,0.814,0.6
	c0.132,0.038,0.3,0.073,0.506,0.103c0.202,0.03,0.347,0.047,0.435,0.051V92.1L155.429,92.1z M149.563,83.012
	c0-0.815-0.229-1.412-0.685-1.788c-0.459-0.376-1.108-0.564-1.952-0.564h-0.68v5.12h0.652c0.845,0,1.5-0.224,1.965-0.665
	C149.328,84.673,149.563,83.97,149.563,83.012L149.563,83.012z M168.729,92.1h-6.66v-0.673c0.312-0.021,0.677-0.077,1.094-0.168
	c0.421-0.088,0.63-0.2,0.63-0.33c0-0.047-0.003-0.1-0.013-0.156c-0.008-0.059-0.031-0.135-0.073-0.232l-1.044-2.535h-4.219
	c-0.098,0.235-0.206,0.512-0.323,0.83c-0.118,0.314-0.222,0.597-0.306,0.844c-0.109,0.32-0.174,0.553-0.194,0.697
	s-0.029,0.244-0.029,0.304c0,0.182,0.138,0.337,0.417,0.467c0.279,0.129,0.741,0.223,1.391,0.28V92.1h-5.013v-0.673
	c0.188-0.01,0.402-0.042,0.641-0.088c0.238-0.051,0.426-0.118,0.564-0.203c0.235-0.139,0.436-0.309,0.6-0.509
	c0.162-0.2,0.3-0.438,0.408-0.715c0.665-1.614,1.333-3.231,2.003-4.851c0.671-1.618,1.408-3.405,2.218-5.357h1.723
	c1.126,2.77,2.008,4.958,2.646,6.566c0.638,1.605,1.179,2.94,1.626,3.995c0.076,0.174,0.17,0.33,0.285,0.471
	c0.115,0.138,0.279,0.273,0.49,0.4c0.162,0.091,0.348,0.162,0.562,0.206c0.213,0.047,0.404,0.076,0.577,0.086V92.1L168.729,92.1z
	 M162.31,87.155l-1.773-4.429l-1.749,4.429H162.31L162.31,87.155z M181.746,80.547c-0.206,0.024-0.397,0.062-0.57,0.112
	c-0.171,0.052-0.336,0.124-0.492,0.218c-0.246,0.135-0.464,0.314-0.658,0.529c-0.191,0.214-0.38,0.456-0.564,0.717
	c-0.371,0.546-0.765,1.141-1.173,1.779c-0.412,0.641-0.859,1.347-1.342,2.117c-0.314,0.488-0.508,0.861-0.582,1.123
	c-0.07,0.262-0.105,0.714-0.105,1.355v1.732c0,0.209,0.038,0.388,0.115,0.544c0.078,0.156,0.226,0.282,0.443,0.379
	c0.097,0.039,0.306,0.092,0.621,0.159c0.313,0.064,0.549,0.105,0.696,0.115V92.1h-6.813v-0.673c0.161-0.01,0.391-0.033,0.693-0.068
	c0.3-0.035,0.512-0.074,0.632-0.121c0.212-0.091,0.359-0.215,0.436-0.365c0.076-0.153,0.118-0.338,0.118-0.556v-2.156
	c0-0.188-0.004-0.355-0.01-0.5c-0.005-0.144-0.025-0.264-0.062-0.362c-0.041-0.108-0.108-0.247-0.206-0.417
	c-0.097-0.17-0.223-0.389-0.379-0.658c-0.44-0.776-0.87-1.512-1.284-2.206c-0.412-0.694-0.807-1.347-1.18-1.955
	c-0.194-0.318-0.392-0.571-0.592-0.762c-0.196-0.194-0.399-0.35-0.604-0.471c-0.156-0.084-0.345-0.152-0.565-0.196
	c-0.221-0.047-0.42-0.077-0.6-0.089v-0.67h7.004v0.67c-0.644,0.019-1.076,0.062-1.299,0.135c-0.224,0.071-0.339,0.171-0.339,0.297
	c0,0.062,0.044,0.188,0.126,0.379c0.083,0.188,0.233,0.482,0.444,0.876c0.194,0.373,0.479,0.888,0.856,1.544
	c0.376,0.655,0.828,1.419,1.357,2.299c1.091-1.729,1.841-2.935,2.247-3.622c0.408-0.685,0.611-1.105,0.611-1.262
	c0-0.194-0.117-0.344-0.355-0.447c-0.238-0.104-0.627-0.171-1.158-0.201v-0.67h4.531V80.547L181.746,80.547z M195.021,92.1h-6.66
	v-0.673c0.312-0.021,0.677-0.077,1.094-0.168c0.42-0.088,0.629-0.2,0.629-0.33c0-0.047-0.002-0.1-0.012-0.156
	c-0.009-0.059-0.031-0.135-0.072-0.232l-1.044-2.535h-4.22c-0.098,0.235-0.206,0.512-0.323,0.83
	c-0.118,0.314-0.221,0.597-0.306,0.844c-0.109,0.32-0.174,0.553-0.194,0.697s-0.029,0.244-0.029,0.304
	c0,0.182,0.138,0.337,0.417,0.467c0.279,0.129,0.741,0.223,1.391,0.28V92.1h-5.013v-0.673c0.188-0.01,0.402-0.042,0.641-0.088
	c0.238-0.051,0.427-0.118,0.564-0.203c0.235-0.139,0.436-0.309,0.6-0.509c0.162-0.2,0.3-0.438,0.408-0.715
	c0.665-1.614,1.333-3.231,2.003-4.851c0.671-1.618,1.408-3.405,2.218-5.357h1.723c1.126,2.77,2.008,4.958,2.646,6.566
	c0.638,1.605,1.179,2.94,1.626,3.995c0.076,0.174,0.171,0.33,0.285,0.471c0.114,0.138,0.279,0.273,0.491,0.4
	c0.161,0.091,0.347,0.162,0.562,0.206c0.212,0.047,0.403,0.076,0.576,0.086V92.1L195.021,92.1z M188.603,87.155l-1.773-4.429
	l-1.749,4.429H188.603L188.603,87.155z"/>
<path fill="#FAC800" d="M112.885,225.612c-0.068-0.493,0.278-0.95,0.771-1.018c0.494-0.068,0.95,0.277,1.019,0.771
	c0.089,0.65,0.595,0.78,1.253,0.689c0.813-0.112,1.854-0.496,2.846-0.861c1.227-0.451,2.387-0.878,3.278-0.853
	c1.39,0.038,2.567,0.634,3.693,1.204c0.876,0.444,1.717,0.87,2.457,0.87c1.123,0,2.207-0.51,3.244-0.996
	c1.951-0.916,3.771-1.771,5.964-0.174c0.292,0.213,0.568,0.374,0.827,0.487c0.757,0.333,1.424,0.305,1.973,0.088
	c0.572-0.226,1.044-0.658,1.371-1.107l0.002,0.001c0.142-0.194,0.253-0.389,0.331-0.567c0.201-0.456,0.735-0.663,1.192-0.463
	c0.456,0.201,0.664,0.735,0.464,1.192c-0.129,0.292-0.306,0.602-0.524,0.902v0.003c-0.5,0.686-1.242,1.355-2.178,1.724
	c-0.959,0.377-2.101,0.438-3.359-0.117c-0.384-0.169-0.774-0.393-1.166-0.678c-1.332-0.971-2.684-0.337-4.133,0.344
	c-1.22,0.572-2.497,1.172-4.007,1.172c-1.161,0-2.193-0.522-3.27-1.067c-0.945-0.478-1.933-0.979-2.929-1.007
	c-0.552-0.015-1.551,0.353-2.606,0.741c-1.073,0.396-2.202,0.811-3.229,0.951C114.475,228.077,113.164,227.64,112.885,225.612
	L112.885,225.612z M111.465,221.115c-0.311-0.39-0.246-0.958,0.144-1.269s0.96-0.246,1.271,0.144c0.91,1.139,2.204,0.48,3.351-0.104
	c1.088-0.554,2.09-1.063,3.112-0.675h0.003c0.366,0.139,0.709,0.28,1.032,0.411c1.685,0.689,2.758,1.128,4.622-0.13
	c2.164-1.46,3.399-0.817,4.687-0.148c0.923,0.481,1.89,0.982,3.756-0.336c1.589-1.122,2.764-0.546,4.118,0.118
	c1.195,0.587,2.598,1.273,4.765-0.029c0.427-0.257,0.981-0.118,1.237,0.31c0.255,0.428,0.117,0.983-0.31,1.239
	c-3.013,1.811-4.886,0.893-6.484,0.108c-0.843-0.413-1.573-0.771-2.286-0.267c-2.765,1.953-4.23,1.191-5.631,0.463
	c-0.8-0.416-1.568-0.815-2.84,0.042c-2.665,1.799-4.085,1.219-6.313,0.307c-0.311-0.126-0.641-0.262-0.996-0.396l0-0.002
	c-0.278-0.101-0.937,0.235-1.652,0.599C115.288,222.397,113.298,223.41,111.465,221.115L111.465,221.115z"/>
<polygon fill-rule="evenodd" clip-rule="evenodd" fill="#FFFFFF" points="126.238,198.016 138.375,198.016 149.226,198.016 
	149.226,194.827 138.375,194.827 138.375,192.113 126.238,192.113 126.144,192.113 114.008,192.113 114.008,194.827 
	103.156,194.827 103.156,198.016 114.008,198.016 126.144,198.016 126.238,198.016 "/>
<path fill-rule="evenodd" clip-rule="evenodd" fill="#FFFFFF" d="M126.238,172.029h3.236l-2.048-55.112
	c-0.047-0.904,0.287-1.953,2.048-1.953v-0.855h-3.236h-0.094h-3.236v0.855c1.762,0,2.094,1.047,2.048,1.953l-2.048,55.112h3.236
	H126.238L126.238,172.029z"/>
<polygon fill-rule="evenodd" clip-rule="evenodd" fill="#FFFFFF" points="126.238,175.218 144.895,175.218 144.895,173.458 
	126.238,173.458 126.144,173.458 107.488,173.458 107.488,175.218 126.144,175.218 126.238,175.218 "/>
<path fill-rule="evenodd" clip-rule="evenodd" fill="#FFFFFF" d="M128.57,190.782h1.618c1.095-7.282,4.474-12.089,11.374-12.897
	l0.001-1.285h-15.326h-0.094h-15.325v1.284c6.9,0.81,10.28,5.616,11.374,12.897h1.57c0-0.19,0-0.382,0-0.571
	c0-3.808,1.095-6.854,2.428-6.854c1.332,0,2.427,3.047,2.427,6.854L128.57,190.782L128.57,190.782z"/>
<polygon fill-rule="evenodd" clip-rule="evenodd" fill="#FFFFFF" points="141.469,190.782 149.228,190.782 149.228,187.926 
	141.469,187.926 141.469,190.782 "/>
<path fill-rule="evenodd" clip-rule="evenodd" fill="#E20220" d="M126.191,103.305l1.808,4.236c0.999,2.189-0.81,4.854-1.808,4.854
	c-0.999,0-2.808-2.665-1.809-4.854L126.191,103.305L126.191,103.305z"/>
<polygon fill-rule="evenodd" clip-rule="evenodd" fill="#FFFFFF" points="110.914,190.782 103.156,190.782 103.156,187.926 
	110.914,187.926 110.914,190.782 "/>
<path fill-rule="evenodd" clip-rule="evenodd" fill="#FFFFFF" d="M143.762,111.555c-0.783,0-1.514,0.352-1.983,0.967
	c-0.209-0.043-0.417-0.088-0.626-0.088c-1.46,0-2.609,1.143-2.609,2.506c0,0.571,0.157,1.055,0.47,1.45
	c-0.314,0.439-0.47,0.967-0.47,1.537c0,1.495,1.253,2.682,2.767,2.682c1.512,0,2.712-1.187,2.712-2.682
	c0-0.307-0.051-0.572-0.104-0.835c1.305-0.088,2.4-1.318,2.4-2.769C146.316,112.785,145.169,111.555,143.762,111.555
	L143.762,111.555z M151.169,123.466c-0.729,0.308-1.096,0.835-1.2,1.406c-0.21,0.044-0.417,0.132-0.626,0.221
	c-1.253,0.527-1.669,1.715-0.938,2.638c0.262,0.352,0.678,0.616,1.147,0.791c0,0.395,0.105,0.791,0.417,1.187
	c0.783,0.967,2.505,1.318,3.861,0.704c1.305-0.572,1.722-1.847,0.94-2.858c-0.157-0.175-0.314-0.351-0.523-0.483
	c1.095-0.572,1.409-1.802,0.626-2.769C154.09,123.291,152.368,122.938,151.169,123.466L151.169,123.466z M172.35,115.819
	c-0.418-0.352-1.043-0.571-1.671-0.571c-0.051-0.132-0.155-0.221-0.26-0.352c-0.731-0.703-2.088-0.836-3.026-0.264
	c-0.364,0.175-0.574,0.483-0.73,0.748c-0.417,0.044-0.888,0.175-1.252,0.395c-1.043,0.571-1.2,1.627-0.47,2.374
	c0.783,0.748,2.245,0.879,3.235,0.307c0.209-0.13,0.365-0.263,0.469-0.395c0.731,0.614,2.086,0.66,3.131,0.088
	C172.767,117.577,173.08,116.521,172.35,115.819L172.35,115.819z M190.975,135.202c-0.262-0.571-0.836-0.967-1.515-1.1
	c-0.051-0.175-0.051-0.308-0.155-0.483c-0.418-1.011-1.825-1.494-3.077-1.099c-0.47,0.176-0.888,0.483-1.148,0.791
	c-0.469-0.088-0.99-0.044-1.514,0.131c-1.356,0.484-2.088,1.715-1.617,2.814c0.521,1.055,1.981,1.582,3.338,1.098
	c0.261-0.087,0.47-0.219,0.679-0.352c0.521,0.923,1.929,1.319,3.286,0.881C190.66,137.4,191.392,136.213,190.975,135.202
	L190.975,135.202z M168.437,139.641c-0.729,0-1.355,0.352-1.722,0.835c-0.209-0.044-0.417-0.044-0.626-0.044
	c-1.409,0.044-2.347,0.968-2.14,2.066c0.104,0.395,0.365,0.792,0.73,1.142c-0.209,0.353-0.312,0.748-0.209,1.23
	c0.263,1.187,1.669,2.11,3.184,2.11c1.459-0.044,2.45-1.055,2.19-2.242c-0.052-0.221-0.157-0.439-0.262-0.659
	c1.305-0.089,2.14-1.1,1.878-2.285C171.202,140.607,169.846,139.597,168.437,139.641L168.437,139.641z M171.26,161.117
	c-0.804-0.051-1.507,0.301-1.908,0.903c-0.253-0.101-0.452-0.151-0.703-0.151c-1.458-0.101-2.513,0.955-2.412,2.313
	c0.05,0.553,0.301,1.055,0.653,1.509c-0.251,0.401-0.402,0.903-0.352,1.507c0.151,1.507,1.507,2.814,3.066,2.915
	c1.559,0.149,2.714-1.007,2.563-2.514c-0.05-0.301-0.101-0.553-0.201-0.855c1.357,0.051,2.312-1.105,2.162-2.612
	C173.975,162.575,172.718,161.268,171.26,161.117L171.26,161.117z M192.851,163.86c0.104-0.66-0.104-1.274-0.574-1.758
	c0.051-0.175,0.105-0.307,0.155-0.483c0.209-1.142-0.626-2.285-1.878-2.504c-0.469-0.089-0.938-0.046-1.355,0.131
	c-0.313-0.308-0.782-0.528-1.305-0.614c-1.355-0.221-2.607,0.527-2.869,1.757c-0.208,1.23,0.679,2.418,2.035,2.638
	c0.262,0.044,0.521,0.044,0.731,0.044c-0.105,1.1,0.833,2.154,2.138,2.374C191.339,165.705,192.644,164.959,192.851,163.86
	L192.851,163.86z M188.294,193.922c0.418-0.659,0.365-1.45,0-2.198c0.157-0.131,0.313-0.308,0.418-0.483
	c0.73-1.275,0.209-2.813-1.147-3.516c-0.521-0.22-1.096-0.308-1.617-0.264c-0.262-0.483-0.679-0.878-1.252-1.143
	c-1.461-0.747-3.287-0.263-4.018,1.056c-0.781,1.318-0.208,2.989,1.251,3.735c0.263,0.133,0.574,0.221,0.889,0.263
	c-0.626,1.231,0.052,2.727,1.461,3.473C185.791,195.591,187.564,195.196,188.294,193.922L188.294,193.922z M163.272,191.463
	c-0.47-0.614-1.2-0.923-1.932-0.923c-0.052-0.221-0.207-0.395-0.312-0.571c-0.888-1.1-2.399-1.319-3.34-0.439
	c-0.365,0.352-0.626,0.791-0.729,1.276c-0.469,0.043-0.938,0.22-1.356,0.57c-1.043,0.968-1.095,2.681-0.157,3.868
	c0.94,1.186,2.505,1.362,3.547,0.438c0.209-0.175,0.365-0.395,0.521-0.614c0.888,0.968,2.348,1.056,3.391,0.133
	C163.95,194.232,164.158,192.563,163.272,191.463L163.272,191.463z"/>
<path fill-rule="evenodd" clip-rule="evenodd" fill="#009036" d="M144.23,120.214c0,0,5.27,0.176,7.147,0
	c3.913-0.353,10.277,3.779,13.094,6.021c2.504,2.022-1.774-0.352-3.703-0.748c-1.983-0.439-4.852-1.362-4.852-1.362
	c0.783,1.187,0.99,2.198-0.104,2.901c0.73,0.922,0.678,1.757-0.053,2.55c0,0,6.469-1.802,10.225-1.144
	c3.703,0.66,8.348,6.021,7.407,6.33c-0.939,0.352-4.435-4.748-8.556-4.659c-4.069,0.044-8.452,1.669-8.452,1.669
	s3.652,2.988,7.512,3.648c3.912,0.703,8.295-0.221,9.757,0.923c1.514,1.187,4.954,6.461,5.478,8.396
	c0.573,1.89,0.209,1.89,0.209,1.89s-4.017-2.505-5.009-3.647c-1.043-1.188-2.035-2.681-2.035-2.681
	c0.521,1.627,0.157,2.856-0.991,3.647c0.521,0.968,0.104,2.065-0.888,3.209c0,0,5.009-1.582,6.99,0.748
	c1.931,2.329,2.504,5.933,2.295,7.295c-0.157,1.318-0.262,2.153-0.262,2.153s-3.809-5.846-5.947-7.121
	c-2.14-1.231-9.65-1.144-9.65-1.144s2.504,3.912,5.163,5.406c2.715,1.539,8.399,1.45,9.6,3.823c1.2,2.417,1.095,7.341,0.835,10.109
	c-0.313,2.77-1.147,6.021-1.147,6.021s-2.14-8.352-2.505-9.098c0.313,0.175-0.729,2.021-3.076,2.328
	c0.783,2.066-1.514,3.033-2.191,2.77c0.47,0.177,4.331,1.012,6.051,4.837c1.669,3.867-2.087,9.977-2.087,9.977
	s-2.138-1.669-2.034-3.955c0.104-2.241-0.729-6.11-1.774-8.088c-0.99-2.022-9.545-3.956-9.545-3.956s-0.73,5.011,1.564,8.219
	c2.347,3.165,8.451,4.659,9.392,6.857c0.938,2.154,0.834,4.659-2.4,7.867c-3.285,3.165-6.991,8.176-8.451,9.274
	c-1.515,1.1-2.139,1.758-2.139,1.758c1.305-2.065,2.609-4.132,3.912-6.197c-0.104,0.395-1.616,0.88-2.974-0.264
	c-1.564,0.923-3.757,0.264-3.914-0.043c1.096,1.714,3.026,3.999-0.729,7.297c-4.558,2.611-11.864,3.98-19.448,4.402
	c0.474-0.727,1.39-2.147,1.719-2.771c0.452-0.804,1.307-2.513-0.603-3.97c-1.909-1.407-4.826,1.558-4.826,1.558l-4.22,4.876h0v0.447
	v1.109v0.003c0.001-0.001,0.001-0.002,0.002-0.002c2.713,3.165,5.478,6.383,5.478,6.383l0.905-0.604l-5.038-5.789
	c1.692-0.012,3.379,0.038,5.069-0.023l7.002,5.712l1.206-1.105l-6.106-4.701c4.847-0.263,9.315-0.821,12.703-1.657
	c4.069-0.748,7.616-0.967,10.485-0.308c2.871,0.66,8.661,0.482,11.164-0.265c2.504-0.748,7.408-5.582,7.408-5.582
	s-3.964-1.669-7.772-1.012c-3.81,0.66-9.13,3.429-9.13,3.429s4.852-5.098,9.649-6.108c4.853-1.013,12.939-2.109,12.939-2.109
	c-2.243-0.572-2.871-1.758-2.348-3.429c-1.669-0.483-2.608-1.89-2.871-4.177c0,0-2.034,4.441-5.111,5.936
	c-3.026,1.538-3.497,1.538-3.497,1.538s3.131-4.353,5.009-6.813c1.824-2.419,7.042-5.759,11.528-7.34
	c4.435-1.582,6.783-5.363,7.304-7.385c0.574-1.978,0.574-5.099,0.574-5.099s-6.05,0.748-8.452,3.121
	c-2.399,2.33-5.009,5.67-5.112,6.68c-0.104,1.011-1.461,3.165-1.461,3.165s0.419-5.89,1.461-8.088
	c0.991-2.154,5.53-6.77,7.879-7.516c-0.729,0.176-1.515-0.263-1.774-1.625c-2.034,0.044-2.974-1.583-2.557-2.066
	c0,0-1.305,6.021-2.139,6.68c-0.835,0.66-1.617,1.847-1.617,1.406c0-0.395,0-8.351,0.782-10.681c0.731-2.373,1.983-5.1,4.591-6.549
	c2.608-1.407,4.226-5.979,4.226-7.825c0-1.846-0.365-2.9-0.365-2.9s-4.59,1.759-5.478,4.747c-0.938,3.033,0.157,4.263-1.043,5.934
	c-1.2,1.669-1.879,2.461-1.879,2.461s-1.825-4.967,0.105-7.955c1.981-3.033,6.99-7.209,7.825-8.571
	c-0.938,0.571-2.399,0.353-3.703-1.099c-2.14,0.659-3.338,0.22-4.278-0.703c0,0,2.036,3.648,0.889,5.405
	c-1.096,1.758-2.191,2.857-2.191,2.857s-0.208-3.429-1.2-5.494c-1.043-2.11-1.252-3.868,0-6.198c1.2-2.373,1.461-6.944,0.991-9.231
	c-0.469-2.242-2.244-3.823-2.244-3.823s-2.296,2.066-2.296,5.67s2.139,4.264,1.669,6.286c-0.469,2.021-0.73,2.593-0.73,2.593
	s-2.452-5.187-4.018-6.681c-1.564-1.539-1.774-3.296-1.096-5.801c0.626-2.505,0.991-4.572,0.991-4.572
	c-1.043,1.055-2.14,1.142-3.34,0.484c-0.938,1.1-2.348,0.792-3.808,0.527c0,0,4.018,3.428,4.121,5.143
	c0.053,1.759,0.263,3.472,0.263,3.472s-6.417-5.055-9.025-6.461c-2.609-1.407-2.661-0.483-3.131-3.166
	c-0.47-2.682-1.2-5.889-4.017-7.868c-2.767-2.022-4.278-2.285-4.278-2.285s0.104,4.351,1.669,6.461
	c1.618,2.066,4.487,4.616,4.487,4.616s-0.314,0.834-2.714-0.703c-2.4-1.495-4.8-4.923-4.8-4.923
	c-0.209,1.23-0.419,2.417-1.774,3.077C146.214,118.676,145.588,119.686,144.23,120.214L144.23,120.214z M134.313,208.51
	c-0.09,0.004-0.179,0.007-0.269,0.01c-1.075,0.007-3.137,0.027-5.102,0.046c1.953-2.239,3.719-4.286,4.2-4.862
	c1.257-1.357,2.814-1.608,3.668-0.301C137.467,204.404,135.337,207.244,134.313,208.51L134.313,208.51z"/>
<path fill-rule="evenodd" clip-rule="evenodd" fill="#FDE500" d="M113.387,214.258l1.207,1.105l7.008-5.717
	c0.9,0.028,1.803,0.045,2.705,0.056c0.354,0,1.235-0.004,2.346-0.011l-5.022,5.772l0.906,0.604c0,0,2.762-3.214,5.477-6.381v-0.003
	v-1.109v-0.447l-4.222-4.876c0,0-2.915-2.965-4.825-1.558c-1.909,1.458-1.055,3.166-0.603,3.97c0.337,0.637,1.285,2.106,1.749,2.817
	c-9.205-0.44-17.141-1.93-19.548-3.919c0,0-0.783-2.594-0.783-3.517c0-0.878-1.564-3.646-1.564-3.646s0.678,3.208,0.729,3.954
	c0.105,0.791-0.521,2.593-1.148,2.593s-2.452-1.582-2.452-1.582s-0.523-3.34-0.627-4.395c-0.104-1.1-0.783-3.077-0.729-2.506
	c0.105,0.527-0.365,4.088-0.365,4.088c-0.312,0.265-0.626,0.483-0.991,0.748c-0.729-0.616-1.46-1.275-2.243-1.89
	c0,0-0.157-2.11,0-3.429c0.209-1.275-0.521-2.813-0.521-2.813s-0.262,0.835-0.365,1.935c-0.105,1.055-0.521,2.549-0.521,2.549
	s-5.164-5.231-5.895-6.461c-0.678-1.188-2.4,0-1.929,0.79c0.521,0.792,2.034,2.901,2.504,3.692
	c0.469,0.791-8.452-0.308-11.737-1.143c-3.235-0.835-6.938-4.221-6.938-4.221c0.521,2.989,4.173,5.231,7.616,6.152
	c2.557,0.66,12.416,0.793,12.416,0.793c0.574,0.659,1.461,1.669,1.721,2.021c0.314,0.308-5.738,1.715-9.024,1.406
	c-3.288-0.308-8.659-1.978-8.659-1.978c5.164,4.176,11.997,3.384,19.615,2.55c0,0,1.722,1.361,2.191,1.977
	c-1.355,0.703-7.407,1.274-9.545,1.318c3.652,1.846,10.538,0.044,10.538,0.044s2.503,1.1,2.818,2.021
	c0.312,0.923-2.245,0.749-4.278,0.791c3.495,1.45,4.852,0.265,7.304,0.396c0,0,1.773-0.352,4.59,0.438
	c4.597,1.268,10.764,2.028,17.192,2.325L113.387,214.258L113.387,214.258z M112.408,111.775c-1.252,1.406-2.086,3.209-3.809,4.22
	c-1.774,0.967-4.069,0.967-6.05,1.495c1.252-1.406,2.086-3.209,3.809-4.22C108.129,112.258,110.424,112.258,112.408,111.775
	L112.408,111.775z M101.452,109.973c-0.052,1.582,0.469,3.209-0.157,4.659c-0.574,1.495-2.243,2.461-3.338,3.692
	c0-1.538-0.521-3.165,0.105-4.659C98.687,112.215,100.356,111.204,101.452,109.973L101.452,109.973z M94.514,112.61
	c0.262,1.538,1.095,3.121,0.783,4.659c-0.312,1.495-1.721,2.726-2.609,4.088c-0.262-1.539-1.095-3.077-0.783-4.615
	C92.219,115.202,93.625,114.016,94.514,112.61L94.514,112.61z M87.888,116.345c0.469,1.539,1.459,2.989,1.304,4.571
	c-0.104,1.539-1.409,2.858-2.087,4.308c-0.417-1.538-1.46-2.988-1.303-4.527C85.905,119.115,87.209,117.795,87.888,116.345
	L87.888,116.345z M82.253,120.038c0.574,1.495,1.669,2.901,1.669,4.439s-1.147,2.946-1.721,4.439
	c-0.574-1.494-1.721-2.9-1.721-4.439C80.532,122.895,81.681,121.532,82.253,120.038L82.253,120.038z M77.506,124.521
	c0.626,1.45,1.878,2.813,1.983,4.396c0.052,1.538-0.991,2.988-1.461,4.482c-0.678-1.45-1.878-2.812-1.981-4.353
	C75.941,127.51,76.985,126.06,77.506,124.521L77.506,124.521z M73.229,129.445c0.783,1.406,2.14,2.68,2.347,4.22
	c0.209,1.539-0.731,3.033-1.095,4.571c-0.783-1.406-2.088-2.682-2.347-4.22C71.925,132.478,72.863,130.939,73.229,129.445
	L73.229,129.445z M69.211,134.938c1.095,1.231,2.661,2.286,3.235,3.78c0.521,1.495-0.052,3.121-0.052,4.66
	c-1.095-1.274-2.661-2.285-3.233-3.781C68.585,138.103,69.211,136.478,69.211,134.938L69.211,134.938z M65.821,140.213
	c1.252,1.144,2.974,2.021,3.757,3.429c0.783,1.407,0.418,3.076,0.626,4.615c-1.252-1.144-2.974-2.022-3.757-3.429
	C65.664,143.422,66.03,141.751,65.821,140.213L65.821,140.213z M63.369,145.707c1.357,1.055,3.183,1.758,4.123,3.121
	c0.938,1.317,0.783,3.032,1.2,4.571c-1.409-1.055-3.235-1.758-4.173-3.121C63.578,148.916,63.733,147.245,63.369,145.707
	L63.369,145.707z M61.854,151.948c1.514,0.923,3.393,1.495,4.487,2.726c1.095,1.276,1.149,2.989,1.671,4.396
	c-1.461-0.879-3.392-1.449-4.435-2.681C62.481,155.114,62.431,153.399,61.854,151.948L61.854,151.948z M113.243,119.466
	c-1.721,0.616-3.287,1.67-5.113,1.801c-1.826,0.132-3.6-0.702-5.373-1.055c1.669-0.616,3.235-1.714,5.059-1.847
	C109.695,118.28,111.415,119.115,113.243,119.466L113.243,119.466z M62.17,158.497c1.46,0.924,3.39,1.494,4.434,2.77
	c1.095,1.275,1.147,2.944,1.72,4.438c-1.512-0.922-3.39-1.494-4.486-2.769C62.742,161.706,62.69,159.992,62.17,158.497
	L62.17,158.497z M62.221,164.432c1.566,0.792,3.547,1.188,4.747,2.374c1.2,1.187,1.409,2.856,2.14,4.308
	c-1.566-0.791-3.547-1.23-4.747-2.419C63.161,167.553,62.9,165.838,62.221,164.432L62.221,164.432z M63.683,170.716
	c1.669,0.703,3.652,1.012,4.955,2.066c1.305,1.1,1.722,2.769,2.556,4.175c-1.617-0.703-3.652-1.011-4.955-2.066
	C64.935,173.793,64.516,172.124,63.683,170.716L63.683,170.716z M64.621,176.915c1.774,0.438,3.757,0.438,5.321,1.317
	c1.512,0.88,2.243,2.461,3.338,3.692c-1.774-0.438-3.807-0.395-5.321-1.273C66.447,179.772,65.716,178.144,64.621,176.915
	L64.621,176.915z M67.646,182.76c1.826,0.22,3.861,0,5.478,0.659c1.669,0.703,2.661,2.198,3.964,3.298
	c-1.826-0.221-3.861,0-5.478-0.703C69.942,185.311,69.003,183.815,67.646,182.76L67.646,182.76z M70.673,188.431
	c1.826,0.088,3.809-0.308,5.53,0.264c1.721,0.527,2.869,1.935,4.278,2.901c-1.826-0.044-3.809,0.351-5.53-0.221
	C73.229,190.803,72.08,189.396,70.673,188.431L70.673,188.431z M108.287,122.982c-1.721,0.483-3.443,1.406-5.269,1.406
	c-1.826-0.044-3.497-1.011-5.27-1.495c1.773-0.484,3.497-1.406,5.321-1.406C104.896,121.532,106.564,122.5,108.287,122.982
	L108.287,122.982z M102.756,125.225c-1.721,0.616-3.286,1.669-5.112,1.846c-1.826,0.132-3.6-0.703-5.426-1.055
	c1.721-0.616,3.287-1.713,5.113-1.846C99.156,124.038,100.93,124.874,102.756,125.225L102.756,125.225z M97.697,127.686
	c-1.618,0.747-3.026,1.978-4.852,2.285c-1.774,0.265-3.652-0.395-5.479-0.571c1.617-0.748,3.026-1.977,4.853-2.285
	C93.992,126.808,95.871,127.465,97.697,127.686L97.697,127.686z M93.992,131.246c-1.617,0.747-3.026,1.978-4.852,2.285
	c-1.774,0.309-3.652-0.395-5.478-0.571c1.617-0.748,3.026-1.977,4.852-2.285C90.288,130.366,92.166,131.07,93.992,131.246
	L93.992,131.246z M90.757,134.895c-1.514,0.835-2.817,2.154-4.59,2.594c-1.773,0.396-3.703-0.132-5.53-0.221
	c1.514-0.879,2.818-2.154,4.59-2.593C87.002,134.279,88.931,134.807,90.757,134.895L90.757,134.895z M86.948,138.807
	c-1.355,1.1-2.4,2.55-4.069,3.209c-1.669,0.66-3.652,0.352-5.53,0.527c1.357-1.055,2.4-2.506,4.069-3.165
	C83.089,138.718,85.124,139.025,86.948,138.807L86.948,138.807z M84.707,142.938c-1.252,1.142-2.192,2.681-3.809,3.427
	c-1.618,0.748-3.6,0.571-5.424,0.88c1.252-1.142,2.138-2.682,3.757-3.428C80.846,143.069,82.881,143.246,84.707,142.938
	L84.707,142.938z M82.671,147.466c-1.147,1.188-1.931,2.77-3.443,3.604c-1.566,0.878-3.6,0.834-5.375,1.23
	c1.149-1.187,1.931-2.77,3.497-3.647C78.863,147.817,80.898,147.861,82.671,147.466L82.671,147.466z M81.367,152.212
	c-1.042,1.318-1.669,2.901-3.183,3.868c-1.46,0.967-3.443,1.055-5.218,1.538c1.044-1.275,1.669-2.901,3.13-3.823
	C77.558,152.827,79.594,152.739,81.367,152.212L81.367,152.212z M81.106,156.871c-0.94,1.318-1.41,2.945-2.817,4
	c-1.355,1.011-3.39,1.231-5.059,1.846c0.938-1.317,1.408-2.988,2.764-4C77.401,157.706,79.384,157.487,81.106,156.871
	L81.106,156.871z M81.001,161.048c-0.783,1.406-1.043,3.121-2.243,4.264c-1.252,1.142-3.235,1.537-4.852,2.329
	c0.783-1.406,1.043-3.12,2.295-4.264C77.401,162.233,79.384,161.838,81.001,161.048L81.001,161.048z M81.367,165.442
	c-0.469,1.495-0.417,3.21-1.46,4.527c-0.991,1.275-2.869,1.934-4.278,2.9c0.469-1.494,0.418-3.163,1.409-4.482
	C78.027,167.069,79.907,166.409,81.367,165.442L81.367,165.442z M82.203,170.321c-0.209,1.582,0.208,3.252-0.574,4.658
	c-0.73,1.45-2.452,2.33-3.652,3.472c0.157-1.536-0.209-3.207,0.521-4.615C79.229,172.387,80.951,171.508,82.203,170.321
	L82.203,170.321z M84.079,175.639c-0.208,1.583,0.157,3.253-0.574,4.659c-0.729,1.406-2.452,2.331-3.652,3.475
	c0.157-1.539-0.209-3.21,0.523-4.615C81.106,177.706,82.827,176.826,84.079,175.639L84.079,175.639z M86.792,179.728
	c-0.052,1.538,0.469,3.164-0.157,4.658c-0.574,1.45-2.191,2.461-3.338,3.691c0.052-1.538-0.469-3.207,0.104-4.659
	C84.028,181.969,85.645,180.958,86.792,179.728L86.792,179.728z M78.811,185.485c0.678-0.308,1.774,0.265,2.4,1.275
	c0.625,1.012,0.625,2.11-0.053,2.417c-0.678,0.308-1.774-0.263-2.452-1.275C78.08,186.847,78.08,185.794,78.811,185.485
	L78.811,185.485z M75.523,180.519c0.678-0.308,1.721,0.308,2.347,1.362c0.574,1.055,0.469,2.154-0.209,2.419
	c-0.729,0.263-1.774-0.353-2.347-1.406C74.689,181.881,74.793,180.781,75.523,180.519L75.523,180.519z M73.229,174.937
	c0.729-0.177,1.721,0.527,2.14,1.625c0.417,1.1,0.208,2.154-0.522,2.373c-0.729,0.221-1.722-0.527-2.138-1.627
	C72.237,176.212,72.499,175.157,73.229,174.937L73.229,174.937z M71.297,169.047c0.783-0.132,1.618,0.703,1.878,1.846
	c0.209,1.144-0.208,2.154-0.938,2.285c-0.783,0.132-1.618-0.703-1.878-1.846C70.151,170.188,70.568,169.136,71.297,169.047
	L71.297,169.047z M70.151,162.981c0.73-0.132,1.564,0.702,1.826,1.803c0.262,1.142-0.157,2.198-0.888,2.285
	c-0.783,0.132-1.617-0.704-1.878-1.803C68.95,164.123,69.368,163.069,70.151,162.981L70.151,162.981z M70.202,156.521
	c0.783,0,1.461,0.922,1.514,2.021c0.052,1.144-0.574,2.11-1.355,2.154c-0.73,0-1.409-0.923-1.461-2.065
	C68.847,157.531,69.42,156.564,70.202,156.521L70.202,156.521z M71.193,150.278c0.783,0.087,1.306,1.055,1.149,2.241
	c-0.157,1.143-0.94,2.022-1.721,1.936c-0.729-0.089-1.252-1.056-1.095-2.242C69.681,151.069,70.463,150.19,71.193,150.278
	L71.193,150.278z M73.176,144.696c0.783,0.176,1.095,1.23,0.73,2.33c-0.365,1.144-1.305,1.892-2.035,1.715
	c-0.729-0.177-1.043-1.188-0.729-2.329C71.506,145.312,72.446,144.521,73.176,144.696L73.176,144.696z M75.994,139.421
	c0.678,0.309,0.835,1.363,0.262,2.419c-0.574,1.055-1.566,1.714-2.296,1.45c-0.729-0.265-0.834-1.362-0.26-2.419
	C74.22,139.817,75.263,139.158,75.994,139.421L75.994,139.421z M79.594,134.498c0.678,0.352,0.625,1.45-0.157,2.419
	c-0.729,0.967-1.878,1.45-2.504,1.1c-0.678-0.353-0.574-1.408,0.157-2.374C77.82,134.631,78.968,134.147,79.594,134.498
	L79.594,134.498z M83.975,129.487c0.574,0.439,0.312,1.495-0.626,2.373c-0.888,0.879-2.139,1.231-2.713,0.792
	c-0.574-0.44-0.312-1.494,0.626-2.373C82.15,129.399,83.35,129.049,83.975,129.487L83.975,129.487z M89.192,125.62
	c0.521,0.484,0.052,1.495-0.991,2.242c-1.043,0.747-2.347,0.967-2.817,0.439c-0.521-0.484-0.052-1.495,0.991-2.241
	C87.419,125.313,88.724,125.093,89.192,125.62L89.192,125.62z M94.93,122.016c0.418,0.571-0.208,1.495-1.409,2.11
	c-1.148,0.614-2.452,0.614-2.817,0.088c-0.418-0.571,0.209-1.538,1.355-2.11C93.261,121.488,94.566,121.444,94.93,122.016
	L94.93,122.016z M101.191,118.808c0.262,0.614-0.521,1.45-1.774,1.89c-1.305,0.483-2.557,0.353-2.869-0.263
	c-0.262-0.616,0.521-1.45,1.774-1.934C99.573,118.06,100.877,118.192,101.191,118.808L101.191,118.808z M121.744,208.548
	c-1.012-1.246-3.189-4.132-2.526-5.146c0.855-1.308,2.413-1.055,3.669,0.301c0.481,0.578,2.253,2.632,4.214,4.881
	c-1.32,0.013-2.397,0.021-2.799,0.021C123.443,208.595,122.589,208.576,121.744,208.548L121.744,208.548z"/>
<path d="M128.013,0h0.002c35.253,0,67.257,14.377,90.446,37.566c23.188,23.188,37.563,55.19,37.564,90.442v0.004v0.002
	c0,35.254-14.377,67.258-37.566,90.446c-23.188,23.188-55.189,37.563-90.442,37.564h-0.004h-0.002
	c-35.253-0.001-67.257-14.377-90.446-37.566C14.377,195.271,0.001,163.27,0,128.017v-0.004v-0.002
	c0-35.254,14.377-67.257,37.566-90.446C60.754,14.377,92.756,0.001,128.009,0H128.013L128.013,0z M128.015,4h-0.002h-0.004
	c-34.149,0-65.15,13.928-87.615,36.392C17.929,62.858,4,93.86,4,128.011v0.002v0.004c0,34.148,13.928,65.15,36.392,87.614
	c22.465,22.466,53.468,36.394,87.618,36.395h0.002h0.004c34.149-0.001,65.15-13.929,87.615-36.393
	c22.465-22.465,36.394-53.468,36.394-87.618v-0.002v-0.004c-0.001-34.148-13.929-65.15-36.393-87.614
	C193.168,17.929,162.165,4,128.015,4L128.015,4z"/>
</svg>
