<?xml version="1.0" encoding="utf-8"?>
<!-- Generator: Adobe Illustrator 13.0.0, SVG Export Plug-In . SVG Version: 6.00 Build 14948)  -->
<!DOCTYPE svg PUBLIC "-//W3C//DTD SVG 1.0//EN" "http://www.w3.org/TR/2001/REC-SVG-20010904/DTD/svg10.dtd">
<svg version="1.0" id="Layer_1" xmlns="http://www.w3.org/2000/svg" xmlns:xlink="http://www.w3.org/1999/xlink" x="0px" y="0px"
	 width="208.707px" height="264.701px" viewBox="0 0 208.707 264.701" enable-background="new 0 0 208.707 264.701"
	 xml:space="preserve">
<path d="M0,0h1.411h205.884h1.411v182.901l-0.05,0.353c-6.301,23.588-19.808,44.555-38.657,59.321
	c-17.69,13.76-40.068,22.126-65.621,22.126c-25.604,0-47.981-8.366-65.671-22.126c-18.85-14.767-32.357-35.733-38.657-59.321
	L0,182.901V0z"/>
<polygon fill="#FFF215" points="2.772,2.772 2.772,103.723 12.399,79.48 12.701,78.725 196.005,78.725 196.258,79.48 
	205.934,103.723 205.934,2.772 "/>
<path d="M175.593,11.995H189c2.218,0,3.932,0.555,5.141,1.663c1.159,1.109,1.765,2.47,1.765,4.083c0,1.361-0.404,2.57-1.261,3.528
	c-0.604,0.655-1.411,1.159-2.52,1.562c1.663,0.403,2.873,1.109,3.679,2.066c0.807,0.958,1.159,2.167,1.159,3.679
	c0,1.159-0.252,2.268-0.807,3.226s-1.311,1.713-2.318,2.268c-0.555,0.353-1.461,0.605-2.722,0.756
	c-1.612,0.202-2.672,0.303-3.175,0.303h-12.349V11.995z"/>
<polygon fill="#FFFFFF" points="2.772,123.329 2.772,126.302 15.674,126.302 15.674,114.156 38.607,114.156 38.607,126.302 
	67.183,126.302 67.183,114.156 90.116,114.156 90.116,126.302 118.591,126.302 118.591,114.156 141.523,114.156 141.523,126.302 
	170.1,126.302 170.1,114.156 193.032,114.156 193.032,126.302 205.934,126.302 205.934,123.329 196.005,123.329 196.005,111.182 
	167.126,111.182 167.126,123.329 144.497,123.329 144.497,111.182 115.618,111.182 115.618,123.329 93.089,123.329 93.089,111.182 
	64.209,111.182 64.209,123.329 41.581,123.329 41.581,111.182 12.701,111.182 12.701,123.329 "/>
<polygon fill="#00A85B" points="2.772,110.124 2.772,121.767 11.088,121.767 11.088,109.62 43.193,109.62 43.193,121.767 
	62.597,121.767 62.597,109.62 94.651,109.62 94.651,121.767 114.106,121.767 114.106,109.62 146.11,109.62 146.11,121.767 
	165.513,121.767 165.513,109.62 197.619,109.62 197.619,121.767 205.934,121.767 205.934,110.124 194.342,81.144 14.314,81.144 "/>
<path fill="#FFF215" d="M182.801,30.189h3.628c1.261,0,2.117-0.252,2.622-0.655c0.503-0.454,0.755-1.058,0.755-1.764
	c0-0.705-0.252-1.26-0.755-1.663c-0.505-0.403-1.361-0.604-2.622-0.604h-3.628V30.189z"/>
<path fill="#FFF215" d="M182.801,21.067h3.124c1.109,0,1.865-0.202,2.319-0.555c0.453-0.403,0.654-0.958,0.654-1.663
	s-0.201-1.209-0.654-1.613c-0.454-0.353-1.21-0.555-2.269-0.555h-3.175V21.067z"/>
<rect x="152.511" y="11.995" width="7.207" height="23.134"/>
<path d="M116.878,27.468l6.803-0.403c0.152,1.108,0.454,1.965,0.908,2.52c0.756,0.957,1.814,1.411,3.175,1.411
	c1.008,0,1.814-0.252,2.369-0.706c0.554-0.503,0.806-1.058,0.806-1.663s-0.252-1.159-0.756-1.613
	c-0.555-0.504-1.765-0.958-3.679-1.361c-3.125-0.706-5.394-1.663-6.703-2.822c-1.361-1.159-2.016-2.621-2.016-4.436
	c0-1.209,0.302-2.318,1.007-3.376c0.706-1.059,1.714-1.915,3.125-2.52c1.36-0.604,3.276-0.907,5.695-0.907
	c2.974,0,5.191,0.555,6.753,1.663c1.563,1.109,2.471,2.823,2.773,5.242l-6.754,0.403c-0.151-1.059-0.555-1.814-1.109-2.268
	c-0.554-0.504-1.36-0.706-2.368-0.706c-0.856,0-1.463,0.151-1.916,0.504c-0.402,0.353-0.604,0.807-0.604,1.311
	c0,0.353,0.151,0.706,0.504,0.958c0.354,0.353,1.16,0.605,2.42,0.857c3.124,0.706,5.342,1.361,6.702,2.066
	c1.361,0.706,2.369,1.563,2.974,2.57c0.605,1.008,0.908,2.167,0.908,3.427c0,1.461-0.404,2.873-1.21,4.083
	c-0.857,1.26-1.966,2.217-3.478,2.873c-1.462,0.655-3.326,0.958-5.544,0.958c-3.932,0-6.652-0.756-8.165-2.269
	C117.936,31.752,117.08,29.837,116.878,27.468z"/>
<path d="M82.404,35.129V11.995h11.895c2.217,0,3.931,0.202,5.09,0.555c1.159,0.403,2.117,1.108,2.822,2.117
	c0.706,1.008,1.059,2.268,1.059,3.729c0,1.311-0.252,2.419-0.807,3.327c-0.555,0.958-1.31,1.714-2.268,2.268
	c-0.605,0.403-1.461,0.706-2.52,0.958c0.857,0.252,1.512,0.555,1.865,0.857c0.303,0.151,0.655,0.554,1.159,1.209
	c0.504,0.605,0.857,1.059,1.008,1.411l3.478,6.704h-8.114l-3.831-7.056c-0.454-0.907-0.907-1.512-1.26-1.764
	c-0.555-0.403-1.109-0.554-1.764-0.554h-0.655v9.375H82.404z"/>
<path fill="#FFF215" d="M89.561,21.369h3.024c0.353,0,0.958-0.1,1.915-0.302c0.454-0.101,0.857-0.353,1.16-0.756
	c0.302-0.353,0.453-0.807,0.453-1.311c0-0.756-0.251-1.31-0.705-1.713c-0.504-0.403-1.361-0.605-2.672-0.605h-3.175V21.369z"/>
<path d="M14.062,11.995h11.894c2.621,0,4.536,0.605,5.847,1.865c1.26,1.209,1.915,2.974,1.915,5.242
	c0,2.318-0.706,4.183-2.117,5.494c-1.411,1.31-3.528,1.965-6.451,1.965h-3.881v8.568h-7.207V11.995z"/>
<polygon points="48.183,11.995 67.335,11.995 67.335,16.934 55.339,16.934 55.339,20.613 66.478,20.613 66.478,25.351 
	55.339,25.351 55.339,29.887 67.688,29.887 67.688,35.129 48.183,35.129 "/>
<path fill="#FFF215" d="M21.269,21.874h1.764c1.36,0,2.318-0.252,2.873-0.706c0.555-0.503,0.857-1.108,0.857-1.864
	c0-0.706-0.252-1.361-0.756-1.865c-0.454-0.504-1.361-0.756-2.722-0.756h-2.016V21.874z"/>
<path d="M133.963,48.132l-6.099-1.108c0.504-1.916,1.513-3.428,2.924-4.436c1.461-1.058,3.478-1.563,6.098-1.563
	c3.024,0,5.241,0.554,6.553,1.663c1.36,1.16,2.015,2.57,2.015,4.284c0,1.008-0.251,1.915-0.806,2.722
	c-0.555,0.806-1.361,1.512-2.47,2.117c0.908,0.202,1.563,0.504,2.066,0.756c0.756,0.503,1.361,1.108,1.765,1.915
	c0.453,0.756,0.654,1.663,0.654,2.722c0,1.361-0.353,2.671-1.058,3.881c-0.706,1.26-1.714,2.217-3.024,2.873
	c-1.361,0.655-3.074,1.008-5.241,1.008c-2.117,0-3.78-0.252-4.989-0.756c-1.21-0.504-2.218-1.209-3.024-2.167
	c-0.756-0.957-1.361-2.117-1.765-3.578l6.401-0.857c0.252,1.311,0.655,2.218,1.159,2.671c0.555,0.504,1.21,0.756,2.066,0.756
	s1.563-0.302,2.117-0.958c0.604-0.605,0.907-1.462,0.907-2.52c0-1.059-0.303-1.865-0.857-2.47c-0.555-0.604-1.311-0.907-2.268-0.907
	c-0.505,0-1.159,0.151-2.066,0.403l0.353-4.586c0.353,0.051,0.604,0.051,0.807,0.051c0.856,0,1.563-0.252,2.117-0.807
	c0.554-0.504,0.855-1.159,0.855-1.916c0-0.705-0.201-1.26-0.654-1.663c-0.403-0.454-0.957-0.655-1.714-0.655
	c-0.756,0-1.36,0.252-1.865,0.706C134.467,46.167,134.115,46.973,133.963,48.132z"/>
<path d="M112.443,48.132l-6.099-1.108c0.504-1.916,1.512-3.428,2.923-4.436c1.461-1.058,3.477-1.563,6.047-1.563
	c3.024,0,5.242,0.554,6.553,1.663c1.36,1.16,2.016,2.57,2.016,4.284c0,1.008-0.252,1.915-0.806,2.722
	c-0.556,0.806-1.361,1.512-2.47,2.117c0.906,0.202,1.562,0.504,2.065,0.756c0.756,0.503,1.361,1.108,1.765,1.915
	c0.453,0.756,0.654,1.663,0.654,2.722c0,1.361-0.352,2.671-1.058,3.881c-0.706,1.26-1.714,2.217-3.023,2.873
	c-1.361,0.655-3.075,1.008-5.242,1.008c-2.066,0-3.729-0.252-4.939-0.756c-1.209-0.504-2.217-1.209-3.024-2.167
	c-0.756-0.957-1.361-2.117-1.764-3.578l6.401-0.857c0.252,1.311,0.655,2.218,1.159,2.671c0.555,0.504,1.21,0.756,2.017,0.756
	c0.856,0,1.563-0.302,2.117-0.958c0.604-0.605,0.907-1.462,0.907-2.52c0-1.059-0.303-1.865-0.857-2.47
	c-0.555-0.604-1.311-0.907-2.269-0.907c-0.503,0-1.108,0.151-2.016,0.403l0.353-4.586c0.353,0.051,0.605,0.051,0.807,0.051
	c0.806,0,1.512-0.252,2.066-0.807c0.555-0.504,0.857-1.159,0.857-1.916c0-0.705-0.202-1.26-0.656-1.663
	c-0.403-0.454-0.957-0.655-1.713-0.655c-0.706,0-1.311,0.252-1.815,0.706C112.946,46.167,112.594,46.973,112.443,48.132z"/>
<path d="M84.924,59.371l6.401-0.806c0.151,0.907,0.454,1.512,0.856,1.915c0.403,0.353,0.857,0.554,1.462,0.554
	c1.008,0,1.814-0.554,2.419-1.563c0.403-0.806,0.705-2.419,0.957-4.889c-0.806,0.756-1.562,1.361-2.369,1.713
	c-0.807,0.403-1.764,0.555-2.822,0.555c-2.066,0-3.831-0.706-5.242-2.218c-1.461-1.461-2.167-3.326-2.167-5.594
	c0-1.512,0.353-2.923,1.109-4.183c0.706-1.26,1.714-2.218,2.974-2.873c1.311-0.655,2.873-0.958,4.838-0.958
	c2.319,0,4.133,0.403,5.544,1.209c1.412,0.756,2.521,2.067,3.377,3.78c0.807,1.713,1.26,4.032,1.26,6.854
	c0,4.184-0.907,7.258-2.671,9.173c-1.714,1.966-4.183,2.923-7.308,2.923c-1.814,0-3.276-0.202-4.334-0.655
	c-1.058-0.403-1.965-1.059-2.671-1.865C85.832,61.639,85.277,60.631,84.924,59.371z"/>
<path fill="#FFF215" d="M96.768,49.039c0-1.26-0.302-2.217-0.958-2.923c-0.604-0.706-1.411-1.058-2.318-1.058
	c-0.856,0-1.563,0.302-2.117,0.958c-0.555,0.605-0.807,1.613-0.807,2.873c0,1.311,0.252,2.268,0.857,2.974
	c0.605,0.706,1.31,1.008,2.167,1.008c0.907,0,1.664-0.302,2.269-0.957C96.466,51.206,96.768,50.299,96.768,49.039z"/>
<path d="M77.616,41.025v23.537h-6.501V49.14c-1.008,0.806-2.066,1.461-3.024,1.965c-1.008,0.454-2.217,0.958-3.729,1.411v-5.292
	c2.217-0.706,3.931-1.563,5.141-2.52c1.209-1.008,2.117-2.218,2.822-3.679H77.616z"/>
<path fill="#FFFFFF" d="M85.68,260.367c5.998,1.008,12.247,1.562,18.699,1.562c6.451,0,12.6-0.554,18.597-1.562
	c-1.765-0.908-3.528-1.966-5.342-3.025c-4.385-2.62-9.123-5.442-13.205-5.392h-0.101c-4.083-0.051-8.82,2.771-13.255,5.392
	C89.259,258.401,87.495,259.458,85.68,260.367z"/>
<path fill="#00B1F1" d="M41.681,241.366c12.499,9.425,27.367,16.128,43.999,19.001c1.814-0.908,3.579-1.966,5.393-3.025
	c4.435-2.62,9.173-5.442,13.255-5.392h0.101c4.083-0.051,8.82,2.771,13.205,5.392c1.814,1.06,3.578,2.117,5.342,3.025
	c16.683-2.873,31.551-9.576,44.05-19.001c-1.563-0.353-3.125-0.555-4.788-0.504c-7.006-0.051-13.154,3.527-18.9,6.955
	c-3.881,2.268-7.56,4.435-10.029,4.435c-2.52,0-6.199-2.167-10.08-4.435c-5.746-3.428-11.793-7.006-18.849-6.955
	c-7.056-0.051-13.155,3.527-18.951,6.955c-3.881,2.268-7.51,4.435-10.029,4.435c-2.47,0-6.149-2.167-10.03-4.435
	c-5.796-3.428-11.895-7.006-18.951-6.955C44.806,240.811,43.244,241.013,41.681,241.366z"/>
<path fill="#FFFFFF" d="M32.307,233.301c2.57,2.521,5.292,4.838,8.114,7.057c0.403,0.353,0.857,0.655,1.26,1.008
	c1.563-0.353,3.125-0.555,4.737-0.504c7.056-0.051,13.154,3.527,18.951,6.955c3.881,2.268,7.56,4.435,10.03,4.435
	c2.52,0,6.148-2.167,10.029-4.435c5.796-3.428,11.895-7.006,18.951-6.955c7.056-0.051,13.103,3.527,18.849,6.955
	c3.881,2.268,7.561,4.435,10.08,4.435c2.47,0,6.148-2.167,10.029-4.435c5.746-3.428,11.895-7.006,18.9-6.955
	c1.663-0.051,3.226,0.151,4.788,0.504c0.403-0.353,0.856-0.655,1.26-1.008c2.822-2.219,5.544-4.536,8.114-7.057
	c-0.252-0.151-0.555-0.303-0.807-0.453c-4.485-2.672-9.223-5.443-13.305-5.394h-0.051c-4.083-0.05-8.82,2.722-13.306,5.394
	c-5.242,3.074-10.231,5.997-15.624,5.997c-5.443,0-10.434-2.923-15.674-5.997c-4.385-2.672-9.123-5.443-13.205-5.394h-0.101
	c-4.083-0.05-8.82,2.722-13.255,5.394c-5.241,3.074-10.231,5.997-15.674,5.997c-5.444,0-10.383-2.923-15.625-5.997
	c-4.485-2.672-9.223-5.443-13.305-5.394h-0.051c-4.083-0.05-8.82,2.722-13.306,5.394C32.861,232.999,32.559,233.15,32.307,233.301z"
	/>
<path fill="#00B1F1" d="M24.545,224.986c2.419,2.923,5.04,5.695,7.762,8.315c0.252-0.151,0.555-0.303,0.806-0.453
	c4.486-2.672,9.223-5.443,13.306-5.394h0.051c4.082-0.05,8.82,2.722,13.305,5.394c5.242,3.074,10.181,5.997,15.625,5.997
	c5.443,0,10.433-2.923,15.674-5.997c4.435-2.672,9.173-5.443,13.255-5.394h0.101c4.083-0.05,8.82,2.722,13.205,5.394
	c5.241,3.074,10.231,5.997,15.674,5.997c5.393,0,10.382-2.923,15.624-5.997c4.485-2.672,9.223-5.443,13.306-5.394h0.051
	c4.082-0.05,8.819,2.722,13.305,5.394c0.252,0.15,0.555,0.302,0.807,0.453c2.722-2.62,5.343-5.393,7.762-8.315
	c-0.957-0.555-1.965-1.109-2.974-1.715c-5.796-3.376-11.895-7.004-18.95-6.954c-7.006-0.05-13.154,3.578-18.9,6.954
	c-3.881,2.269-7.56,4.436-10.029,4.436c-2.52,0-6.199-2.167-10.08-4.436c-5.746-3.376-11.793-7.004-18.849-6.954
	c-7.056-0.05-13.155,3.578-18.951,6.954c-3.881,2.269-7.51,4.436-10.029,4.436c-2.47,0-6.149-2.167-10.03-4.436
	c-5.796-3.376-11.895-7.004-18.951-6.954c-7.005-0.05-13.104,3.578-18.9,6.954C26.511,223.876,25.502,224.431,24.545,224.986z"/>
<path fill="#FFFFFF" d="M16.733,214.3c2.369,3.73,4.99,7.309,7.812,10.686c0.958-0.555,1.966-1.109,2.974-1.715
	c5.796-3.376,11.895-7.004,18.9-6.954c7.056-0.05,13.154,3.578,18.951,6.954c3.881,2.269,7.56,4.436,10.03,4.436
	c2.52,0,6.148-2.167,10.029-4.436c5.796-3.376,11.895-7.004,18.951-6.954c7.056-0.05,13.103,3.578,18.849,6.954
	c3.881,2.269,7.561,4.436,10.08,4.436c2.47,0,6.148-2.167,10.029-4.436c5.746-3.376,11.895-7.004,18.9-6.954
	c7.056-0.05,13.154,3.578,18.95,6.954c1.009,0.605,2.017,1.16,2.974,1.715c2.822-3.377,5.443-6.955,7.812-10.686
	c-0.251,0-0.504,0-0.755,0c-5.443,0-10.383-2.923-15.625-5.997c-4.485-2.621-9.223-5.393-13.305-5.393h-0.051
	c-4.083,0-8.82,2.771-13.306,5.393c-5.242,3.074-10.231,5.997-15.624,5.997c-5.443,0-10.434-2.923-15.674-5.997
	c-4.385-2.621-9.123-5.393-13.205-5.393h-0.101c-4.083,0-8.82,2.771-13.255,5.393c-5.241,3.074-10.231,5.997-15.674,5.997
	c-5.444,0-10.383-2.923-15.625-5.997c-4.485-2.621-9.223-5.393-13.305-5.393h-0.051c-4.083,0-8.82,2.771-13.306,5.393
	c-5.241,3.074-10.181,5.997-15.624,5.997C17.237,214.3,16.985,214.3,16.733,214.3z"/>
<path fill="#00B1F1" d="M9.224,200.592c2.167,4.787,4.687,9.323,7.509,13.708c0.252,0,0.504,0,0.756,0
	c5.443,0,10.382-2.923,15.624-5.997c4.486-2.621,9.223-5.393,13.306-5.393h0.051c4.082,0,8.82,2.771,13.305,5.393
	c5.242,3.074,10.181,5.997,15.625,5.997c5.443,0,10.433-2.923,15.674-5.997c4.435-2.621,9.173-5.393,13.255-5.393h0.101
	c4.083,0,8.82,2.771,13.205,5.393c5.241,3.074,10.231,5.997,15.674,5.997c5.393,0,10.382-2.923,15.624-5.997
	c4.485-2.621,9.223-5.393,13.306-5.393h0.051c4.082,0,8.819,2.771,13.305,5.393c5.242,3.074,10.182,5.997,15.625,5.997
	c0.251,0,0.504,0,0.755,0c2.823-4.385,5.343-8.921,7.51-13.708c-3.225,1.461-6.148,2.62-8.265,2.62c-2.47,0-6.149-2.167-10.03-4.435
	c-5.796-3.428-11.895-7.007-18.95-6.956c-7.006-0.051-13.154,3.528-18.9,6.956c-3.881,2.268-7.56,4.435-10.029,4.435
	c-2.52,0-6.199-2.167-10.08-4.435c-5.746-3.428-11.793-7.007-18.849-6.956c-7.056-0.051-13.155,3.528-18.951,6.956
	c-3.881,2.268-7.51,4.435-10.029,4.435c-2.47,0-6.149-2.167-10.03-4.435c-5.796-3.428-11.895-7.007-18.951-6.956
	c-7.005-0.051-13.104,3.528-18.9,6.956c-3.881,2.268-7.56,4.435-10.029,4.435C15.322,203.212,12.449,202.053,9.224,200.592z"/>
<path fill="#FFFFFF" d="M3.629,185.724c1.512,5.09,3.377,10.08,5.595,14.868c3.226,1.461,6.098,2.62,8.266,2.62
	c2.469,0,6.148-2.167,10.029-4.435c5.796-3.428,11.895-7.007,18.9-6.956c7.056-0.051,13.154,3.528,18.951,6.956
	c3.881,2.268,7.56,4.435,10.03,4.435c2.52,0,6.148-2.167,10.029-4.435c5.796-3.428,11.895-7.007,18.951-6.956
	c7.056-0.051,13.103,3.528,18.849,6.956c3.881,2.268,7.561,4.435,10.08,4.435c2.47,0,6.148-2.167,10.029-4.435
	c5.746-3.428,11.895-7.007,18.9-6.956c7.056-0.051,13.154,3.528,18.95,6.956c3.881,2.268,7.561,4.435,10.03,4.435
	c2.116,0,5.04-1.159,8.265-2.62c2.218-4.788,4.083-9.778,5.595-14.868c-4.788,2.217-9.324,4.082-13.859,4.082
	c-5.443,0-10.383-2.923-15.625-5.997c-4.485-2.621-9.223-5.443-13.305-5.394h-0.051c-4.083-0.05-8.82,2.772-13.306,5.394
	c-5.242,3.074-10.231,5.997-15.624,5.997c-5.443,0-10.434-2.923-15.674-5.997c-4.385-2.621-9.123-5.443-13.205-5.394h-0.101
	c-4.083-0.05-8.82,2.772-13.255,5.394c-5.241,3.074-10.231,5.997-15.674,5.997c-5.444,0-10.383-2.923-15.625-5.997
	c-4.485-2.621-9.223-5.443-13.305-5.394h-0.051c-4.083-0.05-8.82,2.772-13.306,5.394c-5.241,3.074-10.181,5.997-15.624,5.997
	C12.953,189.806,8.367,187.941,3.629,185.724z"/>
<path fill="#00B1F1" d="M2.772,173.124v9.627c0.252,0.957,0.554,1.965,0.856,2.974c4.738,2.217,9.324,4.082,13.86,4.082
	c5.443,0,10.382-2.923,15.624-5.997c4.486-2.621,9.223-5.443,13.306-5.394h0.051c4.082-0.05,8.82,2.772,13.305,5.394
	c5.242,3.074,10.181,5.997,15.625,5.997c5.443,0,10.433-2.923,15.674-5.997c4.435-2.621,9.173-5.443,13.255-5.394h0.101
	c4.083-0.05,8.82,2.772,13.205,5.394c5.241,3.074,10.231,5.997,15.674,5.997c5.393,0,10.382-2.923,15.624-5.997
	c4.485-2.621,9.223-5.443,13.306-5.394h0.051c4.082-0.05,8.819,2.772,13.305,5.394c5.242,3.074,10.182,5.997,15.625,5.997
	c4.535,0,9.071-1.865,13.859-4.082c0.303-1.009,0.555-1.966,0.856-2.974v-9.627c-1.209,0.555-2.419,1.109-3.578,1.663
	c-4.283,2.017-8.366,3.881-11.138,3.881c-2.47,0-6.149-2.117-10.03-4.435c-5.796-3.377-11.895-7.006-18.95-6.955
	c-7.006-0.051-13.154,3.578-18.9,6.955c-3.881,2.317-7.56,4.435-10.029,4.435c-2.52,0-6.199-2.117-10.08-4.435
	c-5.746-3.377-11.793-7.006-18.849-6.955c-7.056-0.051-13.155,3.578-18.951,6.955c-3.881,2.317-7.51,4.435-10.029,4.435
	c-2.47,0-6.149-2.117-10.03-4.435c-5.796-3.377-11.895-7.006-18.951-6.955c-7.005-0.051-13.104,3.578-18.9,6.955
	c-3.881,2.317-7.56,4.435-10.029,4.435c-2.772,0-6.854-1.864-11.139-3.932C5.141,174.233,3.981,173.678,2.772,173.124z"/>
<path fill="#FFFFFF" d="M2.772,160.827v12.297c1.209,0.555,2.369,1.109,3.578,1.612c4.284,2.067,8.367,3.932,11.139,3.932
	c2.469,0,6.148-2.117,10.029-4.435c5.796-3.377,11.895-7.006,18.9-6.955c7.056-0.051,13.154,3.578,18.951,6.955
	c3.881,2.317,7.56,4.435,10.03,4.435c2.52,0,6.148-2.117,10.029-4.435c5.796-3.377,11.895-7.006,18.951-6.955
	c7.056-0.051,13.103,3.578,18.849,6.955c3.881,2.317,7.561,4.435,10.08,4.435c2.47,0,6.148-2.117,10.029-4.435
	c5.746-3.377,11.895-7.006,18.9-6.955c7.056-0.051,13.154,3.578,18.95,6.955c3.881,2.317,7.561,4.435,10.03,4.435
	c2.771,0,6.854-1.864,11.138-3.881c1.159-0.554,2.369-1.108,3.578-1.663v-12.297c-5.09,2.368-9.929,4.485-14.716,4.485
	c-5.443,0-10.383-2.924-15.625-6.048c-4.485-2.621-9.223-5.394-13.305-5.343h-0.051c-4.083-0.051-8.82,2.722-13.306,5.343
	c-5.242,3.124-10.231,6.048-15.624,6.048c-5.443,0-10.434-2.924-15.674-6.048c-4.385-2.621-9.123-5.394-13.205-5.343h-0.101
	c-4.083-0.051-8.82,2.722-13.255,5.343c-5.241,3.124-10.231,6.048-15.674,6.048c-5.444,0-10.383-2.924-15.625-6.048
	c-4.485-2.621-9.223-5.394-13.305-5.343h-0.051c-4.083-0.051-8.82,2.722-13.306,5.343c-5.241,3.124-10.181,6.048-15.624,6.048
	C12.701,165.312,7.863,163.195,2.772,160.827z"/>
<path fill="#00B1F1" d="M2.772,148.58v12.247c5.09,2.368,9.928,4.485,14.717,4.485c5.443,0,10.382-2.924,15.624-6.048
	c4.486-2.621,9.223-5.394,13.306-5.343h0.051c4.082-0.051,8.82,2.722,13.305,5.343c5.242,3.124,10.181,6.048,15.625,6.048
	c5.443,0,10.433-2.924,15.674-6.048c4.435-2.621,9.173-5.394,13.255-5.343h0.101c4.083-0.051,8.82,2.722,13.205,5.343
	c5.241,3.124,10.231,6.048,15.674,6.048c5.393,0,10.382-2.924,15.624-6.048c4.485-2.621,9.223-5.394,13.306-5.343h0.051
	c4.082-0.051,8.819,2.722,13.305,5.343c5.242,3.124,10.182,6.048,15.625,6.048c4.787,0,9.626-2.117,14.716-4.485V148.58
	c-1.209,0.554-2.419,1.108-3.578,1.662c-4.283,2.017-8.366,3.932-11.138,3.932c-2.47,0-6.149-2.167-10.03-4.435
	c-5.796-3.428-11.895-7.006-18.95-6.956c-7.006-0.05-13.154,3.528-18.9,6.956c-3.881,2.268-7.56,4.435-10.029,4.435
	c-2.52,0-6.199-2.167-10.08-4.435c-5.746-3.428-11.793-7.006-18.849-6.956c-7.056-0.05-13.155,3.528-18.951,6.956
	c-3.881,2.268-7.51,4.435-10.029,4.435c-2.47,0-6.149-2.167-10.03-4.435c-5.796-3.428-11.895-7.006-18.951-6.956
	c-7.005-0.05-13.104,3.528-18.9,6.956c-3.881,2.268-7.56,4.435-10.029,4.435c-2.772,0-6.854-1.915-11.139-3.932
	C5.141,149.688,3.981,149.133,2.772,148.58z"/>
<path fill="#FFFFFF" d="M2.772,138.499v10.081c1.209,0.554,2.369,1.108,3.578,1.662c4.284,2.017,8.367,3.932,11.139,3.932
	c2.469,0,6.148-2.167,10.029-4.435c5.796-3.428,11.895-7.006,18.9-6.956c7.056-0.05,13.154,3.528,18.951,6.956
	c3.881,2.268,7.56,4.435,10.03,4.435c2.52,0,6.148-2.167,10.029-4.435c5.796-3.428,11.895-7.006,18.951-6.956
	c7.056-0.05,13.103,3.528,18.849,6.956c3.881,2.268,7.561,4.435,10.08,4.435c2.47,0,6.148-2.167,10.029-4.435
	c5.746-3.428,11.895-7.006,18.9-6.956c7.056-0.05,13.154,3.528,18.95,6.956c3.881,2.268,7.561,4.435,10.03,4.435
	c2.771,0,6.854-1.915,11.138-3.932c1.159-0.554,2.369-1.108,3.578-1.662v-10.081H2.772z"/>
</svg>
